<svg xmlns="http://www.w3.org/2000/svg" viewBox="0 0 566.93 566.93"><defs><style>.cls-1{fill:#6d4ff8;}</style></defs><g id="Layer_2" data-name="Layer 2"><g id="Layer_1-2" data-name="Layer 1"><path class="cls-1" d="M231.64,302.48c-6.56-17.51-31.28-30.21-60.18-30.21-34.12,0-61.88,17.61-61.88,39.25v11.3a16.66,16.66,0,0,0,16.63,16.64H195c.1-.28.24-.55.34-.83.44-1.17.91-2.35,1.44-3.5.41-.89.86-1.78,1.32-2.68h0C204.5,320.36,216.09,309.87,231.64,302.48Z"/><path class="cls-1" d="M172.41,233.39A28.42,28.42,0,1,0,144,205,28.46,28.46,0,0,0,172.41,233.39Z"/><path class="cls-1" d="M284.65,260.78a37,37,0,1,0-37-37A37.08,37.08,0,0,0,284.65,260.78Z"/><path class="cls-1" d="M396.42,233.39A28.42,28.42,0,1,0,368,205,28.46,28.46,0,0,0,396.42,233.39Z"/><path class="cls-1" d="M362.29,353.93a33.66,33.66,0,0,0-1.5-9.78c-.15-.44-.32-.88-.47-1.32-.33-.91-.7-1.82-1.1-2.72s-.85-1.8-1.34-2.69c-.3-.56-.62-1.12-.95-1.68a47.56,47.56,0,0,0-2.92-4.22l-.14-.19c-6.31-8-15.92-14.9-28.05-19.92l-.1-.07a116.32,116.32,0,0,0-84.53,0l-.11.07c-12.12,5-21.73,11.92-28,19.92l-.15.19a44.11,44.11,0,0,0-2.91,4.22c-.34.56-.66,1.11-1,1.68-.49.88-.93,1.78-1.34,2.69s-.77,1.8-1.1,2.72c-.15.44-.32.88-.46,1.32a33.24,33.24,0,0,0-1.51,9.78v14.15a22.32,22.32,0,0,0,22.29,22.29H340a22.3,22.3,0,0,0,22.28-22.29h0Z"/><path class="cls-1" d="M283.46,0C126.91,0,0,126.91,0,283.46S126.91,566.93,283.46,566.93,566.93,440,566.93,283.46,440,0,283.46,0Zm113,164.56A40.41,40.41,0,1,1,356,205,40.46,40.46,0,0,1,396.42,164.56ZM284.65,174.74a49,49,0,1,1-49,49A49.07,49.07,0,0,1,284.65,174.74ZM172.41,164.56A40.41,40.41,0,1,1,132,205,40.45,40.45,0,0,1,172.41,164.56ZM469.35,322.82a28.66,28.66,0,0,1-28.63,28.63h-66.5c0,.83.09,1.66.09,2.49v14.14A34.33,34.33,0,0,1,340,402.37H226.91a34.33,34.33,0,0,1-34.29-34.29V353.94c0-.84,0-1.67.08-2.49H126.21a28.66,28.66,0,0,1-28.63-28.63v-11.3c0-28.26,33.14-51.24,73.88-51.24,33.65,0,62.68,15.84,71.23,37.79a127.76,127.76,0,0,1,81.54,0c8.54-21.95,37.57-37.79,71.22-37.79,40.75,0,73.89,23,73.9,51.24Z"/><path class="cls-1" d="M395.45,272.26c-28.9,0-53.62,12.71-60.17,30.21,15.54,7.39,27.14,17.89,33.5,30h0c.47.88.91,1.78,1.32,2.68.54,1.16,1,2.32,1.44,3.51.1.27.25.54.34.82h68.83a16.66,16.66,0,0,0,16.64-16.64h0V311.51C457.34,289.87,429.58,272.26,395.45,272.26Z"/></g></g></svg>