<?xml version="1.0" encoding="utf-8"?>
<!-- Generator: Adobe Illustrator 23.1.0, SVG Export Plug-In . SVG Version: 6.00 Build 0)  -->
<svg version="1.1" id="Layer_1" xmlns="http://www.w3.org/2000/svg" xmlns:xlink="http://www.w3.org/1999/xlink" x="0px" y="0px"
	 viewBox="0 0 509.1 416.7" style="enable-background:new 0 0 509.1 416.7;" xml:space="preserve">
<style type="text/css">
	.st0{fill:#E0E0E0;}
	.st1{fill:#EBEBEB;}
	.st2{fill:#F5F5F5;}
	.st3{fill:#FFFFFF;}
	.st4{fill:none;stroke:#FBFBFB;stroke-width:0.25;stroke-miterlimit:10;}
	.st5{fill:#263238;}
	.st6{fill:#6D4FF8;}
	.st7{opacity:0.4;enable-background:new    ;}
	.st8{fill:#455A64;}
	.st9{opacity:0.4;}
	.st10{opacity:0.2;fill:#FFFFFF;enable-background:new    ;}
	.st11{fill:#B78876;}
	.st12{fill:#AA6550;}
	.st13{opacity:0.6;}
	.st14{opacity:0.2;}
</style>
<title>creating-pipelines</title>
<polygon class="st0" points="147.3,415.8 70.3,415.9 70.9,338.1 148,338.7 "/>
<path class="st1" d="M147.4,348.9c0,0-12.4,8.4-27.6,18.7S92,386.2,92,386.1s12.4-8.4,27.6-18.7S147.3,348.8,147.4,348.9z"/>
<path class="st1" d="M146.7,366.6c0,0-12.4,8.4-27.6,18.7S91.3,404,91.3,403.9s12.4-8.4,27.6-18.7S146.6,366.6,146.7,366.6z"/>
<path class="st1" d="M147.1,383.8c0,0-10.7,7.3-24,16.3s-24,16.1-24.1,16.1s10.7-7.3,24-16.3S147,383.7,147.1,383.8z"/>
<path class="st1" d="M131.1,339.5c0,0-8.8,6-19.7,13.4s-19.8,13.2-19.8,13.2s8.8-6,19.7-13.4S131,339.5,131.1,339.5z"/>
<path class="st1" d="M146.7,402.1c0,0-4.5,3.3-10.1,7.3s-10.1,7.1-10.1,7.1s4.5-3.3,10.1-7.3S146.7,402.1,146.7,402.1z"/>
<rect x="15.2" y="338.9" transform="matrix(8.552009e-03 -1 1 8.552009e-03 -324.1399 427.8246)" class="st2" width="77" height="77"/>
<polygon class="st0" points="159.8,24.5 159.8,97.9 54.4,97.9 50.6,25 "/>
<rect x="50.6" y="25.1" class="st3" width="105.4" height="72.7"/>
<path class="st0" d="M156.5,98.3H50.1V24.6h106.4V98.3z M51.1,97.3h104.4V25.6H51.1L51.1,97.3z"/>
<rect x="62" y="34.1" class="st3" width="82.6" height="54.7"/>
<path class="st0" d="M144.6,34.1h-0.4H143h-4.5l-17,0.1L62,34.3l0.2-0.2c0,16.7,0,35.2,0,54.7l0,0L62,88.4l82.6,0.1l-0.2,0.2
	c0-16.6,0.1-30.3,0.1-39.8c0-4.8,0-8.5,0.1-11c0-1.3,0-2.2,0-2.9S144.5,34,144.6,34.1c0-0.1,0,0.3,0,0.9s0,1.6,0,2.8
	c0,2.5,0,6.2,0.1,11c0,9.5,0.1,23.2,0.1,39.9V89h-0.2H61.9h-0.3v-0.3l0,0c0-19.5,0-38,0-54.7v-0.2h0.2l59.6,0.1l17,0.1h4.5h1.1
	L144.6,34.1z"/>
<path class="st0" d="M50.6,24.8c0.6,0.3,1.3,0.7,1.8,1.2c1.1,0.8,2.6,1.9,4.1,3.2s3,2.5,4,3.4c0.6,0.4,1.1,1,1.5,1.5
	c-2-1.4-4-2.9-5.8-4.5C54.2,28.1,52.3,26.5,50.6,24.8z"/>
<path class="st0" d="M156,25.1c-1.7,1.7-3.6,3.3-5.6,4.7c-1.9,1.6-3.8,3-5.9,4.3c1.7-1.7,3.6-3.3,5.6-4.7
	C151.9,27.8,153.9,26.3,156,25.1z"/>
<path class="st3" d="M155.9,97.8l-11.7-9.5"/>
<path class="st0" d="M144.2,88.3c2.1,1.4,4.1,2.9,6,4.6c2,1.5,3.9,3.2,5.7,5c-2.1-1.4-4.1-2.9-6-4.6C147.9,91.7,145.9,90,144.2,88.3
	z"/>
<path class="st0" d="M50.6,97.8c1.7-1.7,3.5-3.3,5.5-4.7c1.8-1.6,3.8-3,5.8-4.3c-1.7,1.7-3.6,3.2-5.5,4.7
	C54.5,95.1,52.6,96.5,50.6,97.8z"/>
<rect x="78.7" y="51.1" class="st0" width="52" height="18.3"/>
<rect x="442.4" class="st0" width="57.3" height="83"/>
<rect x="439.5" class="st2" width="57.3" height="83"/>
<rect x="446.6" y="9" class="st3" width="43" height="65"/>
<path class="st0" d="M489.7,74c0,0,0-0.1,0-0.3s0-0.5,0-0.9c0-0.8,0-2,0-3.6c0-3.1,0-7.7,0-13.4c0-11.5,0-27.7-0.1-46.8l0.2,0.1h-43
	l0.2-0.2c0,24.5,0,47.2,0,65l-0.1-0.1l31.3,0.1h8.7h2.3l0,0h-2.3h-8.6L446.8,74h-0.1v-0.1c0-17.9,0-40.5,0-65V8.7h0.2h43h0.1v0.1
	c0,19.2,0,35.4-0.1,46.9c0,5.7,0,10.3,0,13.4c0,1.5,0,2.7,0,3.5c0,0.4,0,0.7,0,0.9L489.7,74z"/>
<path class="st4" d="M487.7,9.4"/>
<path class="st0" d="M496.9,0c-0.3,0.5-0.6,1-1,1.5c-0.7,0.9-1.6,2.1-2.7,3.4s-2.1,2.5-2.8,3.3c-0.4,0.5-0.8,0.9-1.3,1.3
	c0.3-0.5,0.7-1,1.1-1.4C491,7.1,492,6,493,4.7l2.8-3.3C496.1,0.9,496.5,0.4,496.9,0z"/>
<path class="st3" d="M489.9,73.8c2.1,3.4,4.7,6.6,7.5,9.4"/>
<path class="st0" d="M497.4,83.2c-0.5-0.3-0.9-0.7-1.3-1.2c-1-1-1.9-2.1-2.8-3.2c-1-1.3-1.9-2.6-2.5-3.5c-0.3-0.5-0.6-1-0.9-1.5
	c0.4,0.5,0.7,0.9,1,1.4c0.6,0.9,1.5,2.1,2.6,3.4s2,2.4,2.7,3.2C496.6,82.3,497,82.7,497.4,83.2z"/>
<path class="st3" d="M439.5,83l7.5-9.3"/>
<path class="st0" d="M447,73.7c-1.1,1.6-2.3,3.2-3.6,4.7c-1.2,1.6-2.5,3.1-3.9,4.5c1.1-1.6,2.3-3.2,3.6-4.7
	C444.4,76.6,445.6,75.1,447,73.7z"/>
<path class="st0" d="M439.5,0c1.3,1.4,2.5,2.8,3.6,4.4c1.2,1.5,2.3,3,3.4,4.5c-1.3-1.4-2.5-2.8-3.6-4.4C441.7,3.1,440.6,1.6,439.5,0
	z"/>
<rect x="461.9" y="22.2" class="st0" width="14.4" height="40.9"/>
<path class="st5" d="M483.7,415.6c0,0.1-108.3,0.3-241.8,0.3S0,415.8,0,415.6s108.3-0.3,241.9-0.3S483.7,415.5,483.7,415.6z"/>
<path class="st6" d="M208.9,161v89.1h76.7c-0.4-24.6,19.3-44.9,43.9-45.2c24.6-0.4,44.9,19.3,45.2,43.9c0,0.4,0,0.9,0,1.3h76V161
	H208.9z"/>
<path class="st7" d="M208.9,161v89.1h76.7c-0.4-24.6,19.3-44.9,43.9-45.2c24.6-0.4,44.9,19.3,45.2,43.9c0,0.4,0,0.9,0,1.3h76V161
	H208.9z"/>
<path class="st6" d="M153.8,161v89.1h76.7c-0.4-24.6,19.3-44.9,43.9-45.2c24.6-0.4,44.9,19.3,45.2,43.9c0,0.4,0,0.9,0,1.3h76V161
	H153.8z"/>
<path class="st6" d="M450.7,165.8c0,0-12.2,8.5-27.3,18.9s-27.4,18.8-27.5,18.7c0-0.1,12.2-8.5,27.3-18.9
	C438.4,174.1,450.7,165.8,450.7,165.8z"/>
<path class="st6" d="M451.2,182.8c0,0-12.2,8.5-27.3,18.9c-15.1,10.4-27.4,18.7-27.5,18.7s12.2-8.5,27.3-18.9
	S451.2,182.8,451.2,182.8z"/>
<path class="st6" d="M450.6,200.5c0,0-12.2,8.5-27.3,18.9s-27.4,18.7-27.5,18.7s12.2-8.5,27.3-18.9S450.6,200.4,450.6,200.5z"/>
<path class="st6" d="M450.2,217.5c0,0.1-10.6,7.4-23.7,16.4s-23.8,16.3-23.8,16.3s10.6-7.4,23.7-16.4S450.2,217.5,450.2,217.5z"/>
<path class="st6" d="M428.1,161l-0.3,0.2l-0.9,0.7l-3.5,2.4l-11.4,7.9l-11.5,7.8l-3.5,2.4l-1,0.6c-0.1,0.1-0.2,0.1-0.3,0.2
	c0.1-0.1,0.2-0.2,0.3-0.2l0.9-0.7l3.5-2.4l11.5-7.9l11.5-7.9l3.5-2.4l1-0.6L428.1,161z"/>
<path class="st6" d="M296.2,210.8c0,0-12.8,8.9-28.6,19.7s-28.7,19.6-28.7,19.6s12.8-8.9,28.6-19.8S296.2,210.7,296.2,210.8z"/>
<path class="st6" d="M288.9,233.1l-0.2,0.2l-0.7,0.5l-2.6,1.9l-8.7,6l-8.8,6l-2.7,1.8l-0.7,0.5l-0.3,0.2l0.2-0.2l0.7-0.5l2.6-1.9
	l8.7-6l8.8-6l2.7-1.8l0.7-0.5L288.9,233.1z"/>
<path class="st6" d="M273.6,206c0,0-8.9,6.2-19.9,13.8s-20,13.6-20,13.6s8.9-6.2,19.9-13.8S273.6,205.9,273.6,206z"/>
<path class="st6" d="M451,235.8c0,0-4.4,3.3-9.9,7.3s-10,7.2-10,7.1s4.4-3.3,9.9-7.3S450.9,235.8,451,235.8z"/>
<rect x="386.7" y="250.1" class="st5" width="76.6" height="76.6"/>
<rect x="332.1" y="250.1" class="st8" width="76.6" height="76.6"/>
<path class="st8" d="M463.3,259.3c0,0-12.2,8.5-27.3,18.9s-27.4,18.8-27.5,18.7s12.2-8.5,27.3-18.9S463.2,259.2,463.3,259.3z"/>
<path class="st8" d="M462.7,276.9c0,0-12.2,8.5-27.3,18.9s-27.4,18.8-27.5,18.7s12.2-8.5,27.3-18.9S462.7,276.9,462.7,276.9z"/>
<path class="st8" d="M463.3,294c0,0-10.6,7.4-23.7,16.4s-23.8,16.3-23.8,16.2s10.6-7.4,23.7-16.4S463.2,293.9,463.3,294z"/>
<path class="st8" d="M447,250.1c0,0-8.7,6.1-19.4,13.5S408,276.9,408,276.9s8.7-6.1,19.4-13.5S446.9,250.1,447,250.1z"/>
<path class="st8" d="M463.1,312.3c0,0-4.4,3.3-9.9,7.3s-10,7.2-10,7.1s4.4-3.3,9.9-7.3S463,312.2,463.1,312.3z"/>
<rect x="217.8" y="250.1" class="st5" width="76.6" height="76.6"/>
<rect x="163.2" y="250.1" class="st8" width="76.6" height="76.6"/>
<path class="st8" d="M294.4,259.3c0,0-12.2,8.5-27.3,18.9s-27.4,18.8-27.5,18.7s12.2-8.5,27.3-18.9S294.3,259.2,294.4,259.3z"/>
<path class="st8" d="M293.8,276.9c0,0-12.2,8.5-27.3,18.9s-27.4,18.8-27.5,18.7s12.2-8.5,27.3-18.9S293.8,276.9,293.8,276.9z"/>
<path class="st8" d="M294.4,294c0,0-10.6,7.4-23.7,16.4s-23.8,16.3-23.8,16.2s10.6-7.4,23.7-16.4S294.3,293.9,294.4,294z"/>
<path class="st8" d="M278.1,250.1c0,0-8.7,6.1-19.4,13.5s-19.5,13.3-19.6,13.2s8.7-6.1,19.5-13.5S278,250.1,278.1,250.1z"/>
<path class="st8" d="M294.2,312.3c0,0-4.4,3.3-9.9,7.3s-10,7.2-10,7.1s4.4-3.3,9.9-7.3S294.2,312.2,294.2,312.3z"/>
<rect x="395.6" y="326.7" class="st6" width="54" height="89.1"/>
<rect x="395.6" y="326.7" class="st7" width="54" height="89.1"/>
<rect x="153.8" y="326.7" class="st6" width="241.8" height="89.1"/>
<path class="st6" d="M449.2,331.8c0,0-11.9,8.5-26.6,18.8s-26.7,18.6-26.7,18.6s11.9-8.4,26.6-18.8S449.2,331.8,449.2,331.8z"/>
<path class="st6" d="M449.6,348.7c0,0-11.9,8.5-26.6,18.8s-26.7,18.6-26.7,18.6s11.9-8.5,26.6-18.8S449.6,348.7,449.6,348.7z"/>
<path class="st6" d="M449.1,366.3c0,0-11.9,8.5-26.6,18.8s-26.7,18.6-26.7,18.6s11.9-8.4,26.6-18.8S449.1,366.2,449.1,366.3z"/>
<path class="st6" d="M448.7,383.3c0,0-10.3,7.3-23.1,16.3s-23.2,16.2-23.2,16.1s10.3-7.3,23.1-16.3S448.6,383.2,448.7,383.3z"/>
<path class="st6" d="M427.2,327l-0.3,0.2l-0.9,0.7l-3.4,2.4l-11.2,7.8l-11.2,7.8l-3.4,2.3l-0.9,0.6c-0.1,0.1-0.2,0.1-0.3,0.2
	l0.3-0.2l0.9-0.7l3.4-2.4l11.1-7.9l11.2-7.8l3.4-2.3l0.9-0.6L427.2,327z"/>
<path class="st6" d="M449.4,401.5c0,0-4.3,3.3-9.7,7.3s-9.7,7.1-9.8,7.1s4.3-3.3,9.7-7.3S449.4,401.4,449.4,401.5z"/>
<polygon class="st6" points="203.9,161.1 476.9,160.7 340.2,25.3 278.8,25.4 "/>
<polygon class="st6" points="142.6,161.2 415.5,160.8 278.8,25.4 "/>
<g class="st9">
	<path class="st3" d="M420.5,104.8l-0.4,0.3l-1,0.7l-3.8,2.7l-12.7,8.8l-12.8,8.8l-3.9,2.6l-1.1,0.7c-0.2,0.2-0.4,0.2-0.4,0.2
		c0.1-0.1,0.2-0.2,0.4-0.3l1-0.7l3.9-2.7l12.7-8.8l12.8-8.8l3.9-2.6l1.1-0.7C420.2,105,420.4,104.9,420.5,104.8z"/>
	<path class="st3" d="M433.5,118l-0.4,0.3l-1,0.7l-3.9,2.7l-12.7,8.8l-12.8,8.8l-3.9,2.6l-1.1,0.7l-0.4,0.2l0.4-0.3l1-0.7l3.9-2.7
		l12.7-8.8l12.7-8.7l3.9-2.6l1.1-0.7L433.5,118z"/>
	<path class="st3" d="M446.2,130.7l-0.4,0.3l-1,0.7l-3.9,2.7c-3.3,2.3-7.8,5.4-12.7,8.8l-12.8,8.7l-3.9,2.6l-1.1,0.7l-0.4,0.2
		l0.4-0.3l1-0.7l3.9-2.7l12.7-8.8l12.8-8.7l3.9-2.6l1.1-0.7L446.2,130.7z"/>
	<path class="st3" d="M459.8,143.8c0,0-0.1,0.1-0.2,0.2l-0.7,0.5l-2.6,1.8l-8.5,5.9l-8.6,5.9l-2.6,1.8l-0.7,0.5l-0.3,0.1l0.2-0.2
		l0.7-0.5l2.6-1.8l8.5-5.9c3.3-2.3,6.3-4.3,8.6-5.9l2.6-1.8c0.3-0.2,0.5-0.3,0.7-0.5L459.8,143.8z"/>
	<path class="st3" d="M407.2,91.6l-0.4,0.3l-1,0.7l-3.8,2.7l-12.8,8.8l-12.8,8.8c-1.6,1.1-2.9,2-3.9,2.6l-1.1,0.7l-0.4,0.2
		c0.1-0.1,0.2-0.2,0.4-0.3l1-0.7l3.9-2.7L389,104l12.8-8.8l3.9-2.6l1.1-0.7L407.2,91.6z"/>
	<path class="st3" d="M393.9,78.4l-0.4,0.3l-1,0.7l-3.9,2.7L375.9,91l-12.7,8.7l-3.9,2.6l-1.1,0.7c-0.2,0.2-0.4,0.2-0.4,0.2
		c0.1-0.1,0.2-0.2,0.4-0.3l1-0.7l3.9-2.7l12.7-8.8l12.8-8.8l3.9-2.6l1.1-0.7C393.6,78.6,393.7,78.5,393.9,78.4z"/>
	<path class="st3" d="M380.6,65.2c0,0-0.1,0.1-0.4,0.3l-1,0.7l-3.9,2.7l-12.7,8.8l-12.8,8.8l-3.9,2.6l-1.1,0.7l-0.4,0.2
		c0.1-0.1,0.2-0.2,0.4-0.3l1-0.7l3.9-2.7l12.7-8.8l12.8-8.7l3.9-2.6l1.1-0.7L380.6,65.2z"/>
	<path class="st3" d="M367.2,52l-0.4,0.3l-1,0.7l-3.9,2.7l-12.7,8.8l-12.8,8.8l-3.9,2.6l-1.1,0.7c-0.2,0.2-0.4,0.2-0.4,0.2l0.4-0.3
		l1-0.7l3.9-2.7l12.7-8.8l12.8-8.8l3.9-2.6l1.1-0.7C367,52.1,367.1,52.1,367.2,52z"/>
	<path class="st3" d="M353.9,38.8l-0.4,0.3l-1,0.7l-3.9,2.7L336,51.3L323.2,60l-3.9,2.6l-1.1,0.7c-0.1,0.1-0.2,0.2-0.4,0.2l0.4-0.3
		l1-0.7l3.9-2.7l12.8-8.8l12.8-8.8l3.9-2.6l1.1-0.7C353.7,39,353.8,38.9,353.9,38.8z"/>
	<path class="st3" d="M340.6,25.6l-0.4,0.3l-1,0.7l-3.9,2.7l-12.7,8.8l-12.8,8.8c-1.6,1.1-2.9,2-3.9,2.6l-1.1,0.7l-0.4,0.2
		c0,0,0.1-0.1,0.4-0.3l1-0.7l3.9-2.7l12.7-8.8l12.8-8.8l3.9-2.6l1.1-0.7L340.6,25.6z"/>
	<path class="st3" d="M307.8,25.8c0,0-3.7,2.6-8.2,5.8s-8.3,5.7-8.4,5.6s3.7-2.6,8.3-5.8S307.8,25.7,307.8,25.8z"/>
</g>
<polygon class="st10" points="142.6,161.2 415.5,160.8 278.8,25.4 "/>
<g id="Character_1">
	<path class="st0" d="M139.6,201.3c-31.4,6.6-63.6,6.2-102,1.4l17.6-72.9c37,4.5,64,5.5,98,0.8L139.6,201.3z"/>
	<path class="st5" d="M116.2,155c0,0,0,0.2-0.1,0.7c-0.1,0.5-0.2,1.1-0.4,2c-0.4,1.8-0.9,4.3-1.5,7.5l-5.6,27v0.2h-0.2l-11.6,0.1
		h-0.3l0.1-0.3c1.1-6.4,2.4-13.4,3.7-20.8l0,0c0.1-2.4-1.1-4.8-3.1-6.2c-2.2-1.2-4.8-1.6-7.3-1.1c-1.4,0.3-2.7,0.8-3.8,1.7
		c-1.1,0.8-2,1.9-2.7,3.1c-0.3,0.6-0.6,1.2-0.9,1.9c-0.2,0.6-0.4,1.3-0.5,2l-0.9,4c-1.2,5.3-2.4,10.5-3.6,15.4v0.2h-0.2H63.1h-0.3
		l0.1-0.3c3-11.3,5.5-20.7,7.2-27.3l2-7.6c0.2-0.9,0.4-1.5,0.6-2c0.1-0.5,0.2-0.7,0.2-0.7s0,0.2-0.1,0.7c-0.2,0.5-0.3,1.1-0.5,2
		l-1.9,7.6c-1.7,6.6-4.1,16-7,27.3l-0.2-0.3h14.2L77,192c1.1-4.9,2.3-10.1,3.5-15.4c0.3-1.3,0.6-2.7,0.9-4c0.1-0.7,0.3-1.4,0.5-2.1
		c0.2-0.7,0.5-1.4,0.9-2c0.7-1.3,1.7-2.4,2.8-3.3c1.2-0.9,2.6-1.5,4-1.8c2.6-0.5,5.3-0.1,7.6,1.2c1.1,0.7,2,1.7,2.5,2.9
		c0.5,1.2,0.8,2.4,0.8,3.7l0,0l0,0L97,192.1l-0.2-0.3l11.6-0.1l-0.2,0.2c2.4-11.2,4.4-20.4,5.8-26.9c0.7-3.2,1.3-5.7,1.6-7.5
		c0.2-0.8,0.3-1.5,0.4-2C116.2,155.1,116.2,155,116.2,155z"/>
	<path class="st5" d="M71.8,154.8c0.1,0,0.2,0,0.2,0h0.7l2.7-0.1l10-0.1l15-0.1c5.6,0,11.9-0.1,18.5,0l-0.1,0.5l-3.5-1.8l-19.1-9.8
		h0.2l-19.5,8.6l-5.6,2.4l-1.5,0.6c-0.2,0.1-0.3,0.1-0.5,0.2c0.2-0.1,0.3-0.2,0.5-0.3l1.4-0.7l5.5-2.5l19.4-8.8l0.1,0l0.1,0
		l19.1,9.7l3.5,1.8l1,0.5h-1.1c-6.6-0.1-12.8-0.1-18.5-0.1l-15-0.1l-10-0.1h-2.7h-0.7L71.8,154.8z"/>
	<path class="st5" d="M116.2,155c0.2-0.1,0.4-0.1,0.6-0.1l1.8-0.1l6.7-0.4h0.3l-0.1,0.3l-4.1,18.5l-4.3,19.1v0.1H117l-6.4-0.1
		l-1.7-0.1c-0.2,0-0.4,0-0.6-0.1c0.2,0,0.4,0,0.6,0h1.7h6.3l-0.2,0.1c1.1-5,2.6-11.7,4.2-19.1c1.6-7.1,3.1-13.6,4.2-18.5l0.2,0.2
		l-6.8,0.3h-1.8C116.6,155.1,116.4,155,116.2,155z"/>
	<path class="st5" d="M126.4,154.5c-0.4-0.1-0.8-0.3-1.2-0.5l-3.2-1.5c-2.7-1.3-6.3-3.2-10.4-5.3l-6.9-3.6h0.1c-2.6,0-4.7,0-6.3-0.1
		c-0.8,0-1.6,0-2.4-0.1c0.8-0.1,1.6-0.1,2.4-0.1c1.5,0,3.7-0.1,6.3-0.1h0.1h0.1l6.9,3.6c4,2.1,7.7,4,10.3,5.4l3.1,1.7
		C125.7,153.9,126.1,154.2,126.4,154.5z"/>
	<path class="st5" d="M119.7,181.6c0,0.1-4.7,0.2-10.4,0.2c-3.5,0.1-7,0-10.4-0.3c0-0.1,4.7-0.2,10.4-0.2
		C112.7,181.2,116.2,181.3,119.7,181.6z"/>
	<path class="st5" d="M121.6,171.3c-3.5,0.3-7.1,0.3-10.6,0.2c-5.9,0-10.6-0.1-10.6-0.3c0-0.1,4.7-0.3,10.6-0.2
		C116.9,171,121.6,171.1,121.6,171.3z"/>
	<path class="st5" d="M88.6,181.6c0,0.1-5.1,0.2-11.4,0.2c-6.3,0-11.4-0.2-11.4-0.3c0-0.1,5.1-0.2,11.4-0.2
		C83.5,181.3,88.6,181.4,88.6,181.6z"/>
	<path class="st5" d="M90.9,171.3c0,0.1-5.1,0.3-11.4,0.2c-6.3,0-11.3-0.1-11.3-0.3c0-0.1,5.1-0.3,11.4-0.2
		C85.8,171,90.9,171.1,90.9,171.3z"/>
	<path class="st5" d="M97.6,165.1c-0.1,0-0.3,0.1-0.4,0.1h-0.5c-0.2,0-0.4,0.1-0.7,0.1c-0.6,0.1-1.2,0.4-1.7,0.7
		c-0.7,0.4-1.2,1-1.7,1.7c-0.6,0.8-1,1.7-1.3,2.6c-0.3,1-0.5,2.1-0.8,3.3c-0.5,2.4-1.1,4.9-1.7,7.7c-0.9,4-1.7,7.7-2.4,10.8v0.2
		h-0.2l-6.6-0.1l-1.8-0.1c-0.2,0-0.4,0-0.6-0.1c0.2,0,0.4-0.1,0.6-0.1l1.8-0.1l6.6-0.1l-0.2,0.2c0.7-3.1,1.5-6.9,2.3-10.8
		c0.6-2.7,1.2-5.3,1.7-7.7c0.3-1.2,0.5-2.3,0.8-3.4c0.3-1,0.8-1.9,1.4-2.7c0.5-0.7,1.1-1.2,1.8-1.7c0.6-0.3,1.2-0.5,1.8-0.6
		c0.2,0,0.5-0.1,0.7-0.1h0.5C97.3,165.1,97.5,165.1,97.6,165.1z"/>
	<path class="st5" d="M136,143.3c0.1,0-2.4,11.1-5.6,24.6c-3.2,13.5-5.9,24.5-6.1,24.5s2.4-11,5.6-24.6S135.9,143.3,136,143.3z"/>
	<path class="st5" d="M133.2,192.5c-2.7,0.2-5.5,0.2-8.2,0.1c-2.7,0-5.5-0.1-8.2-0.5c2.7-0.2,5.5-0.2,8.2-0.1
		C127.7,192,130.4,192.2,133.2,192.5z"/>
	<path class="st5" d="M125.8,193.9c-0.1,0.1-0.6-0.6-1.2-1.4s-1.1-1.5-1-1.6c0.1-0.1,0.8,0.4,1.4,1.3
		C125.6,193,125.9,193.8,125.8,193.9z"/>
	<path class="st5" d="M137.5,171.1c-2.6,0.3-5.3,0.4-7.9,0.3c-2.6,0.1-5.3,0-7.9-0.2c2.6-0.3,5.3-0.4,7.9-0.3
		C132.3,170.8,134.9,170.9,137.5,171.1z"/>
	<path class="st5" d="M130.6,170.3c0.1,0.1-0.4,0.6-1.1,1.2c-0.7,0.5-1.3,0.9-1.4,0.8s0.4-0.6,1.1-1.2
		C129.8,170.5,130.5,170.2,130.6,170.3z"/>
	<path class="st5" d="M139.8,155.4c-2.5,0.1-5,0.1-7.4-0.1c-2.5,0-5-0.2-7.4-0.6c2.5-0.1,5-0.1,7.5,0.1
		C134.9,154.8,137.4,155,139.8,155.4z"/>
	<path class="st5" d="M135.3,154.2c0.1,0.1-0.6,0.6-1.4,1s-1.6,0.6-1.6,0.5s0.6-0.6,1.4-1S135.3,154.1,135.3,154.2z"/>
	<path class="st5" d="M139.4,144.4c0,0.1-7.7,0-17.2-0.3s-17.2-0.7-17.2-0.8s7.7,0,17.2,0.3C131.6,143.9,139.4,144.3,139.4,144.4z"
		/>
	<path class="st5" d="M138.2,143c0.1,0.1-0.8,0.9-2,1.7c-0.7,0.6-1.4,1-2.3,1.2c-0.1-0.1,0.8-0.9,2-1.7
		C136.6,143.6,137.3,143.2,138.2,143z"/>
	<path class="st5" d="M62.4,166.3c-3.3-5.6-4.2-13-5.1-19.4c-0.4-3-1.1-7.3,1-9.2c2.3-2,2.5-5.1,5.1-6.7c2.6-1.6,6-1.6,8.6,0.1"/>
	<path class="st11" d="M71.5,186L71.5,186c4.9,0.4,9.2-3.3,9.6-8.2c0-0.1,0-0.2,0-0.3c0.2-4.9,0.4-9.8,0.4-9.8s7.4-0.7,7.9-8
		c0.5-7.3,0.4-24.1,0.4-24.1l0,0c-8.2-4.2-18-3.6-25.6,1.5l0.4,25.6v13.8C64.5,181.3,66.9,185.6,71.5,186z"/>
	<path class="st5" d="M82.2,150.8c-1.1-1.6-3.3-2.1-5-1.1c-1.7,1.2-2.3,3.4-1.4,5.3c0.8,1.4,2.1,2.3,3.6,2.7c1.4,0.3,2.3,1.6,2.2,3
		c-0.2,1.8-3.3,2.5-4.6,4c-2.2,2.4-6.8,3.3-10,3.7c-3.2,0.4-2.7,0.4-4.5-2.2c-1.2-1.7-1.8-3.8-1.8-5.9c-0.1-5.4-0.2-10.7-0.3-16.1
		c-0.1-1.9,0-3.9,0.4-5.8c0.4-1.9,1.5-3.6,3.1-4.8c1.8-1.2,4-1.3,6-1.9c2.5-0.8,4.7-2.5,7-3.7c2.3-1.2,5.3-1.9,7.6-0.7
		c1.7,0.9,2.8,2.6,4.5,3.5c2.4,1.4,5.6,1,6.7,4.5c0.4,1.2,0.4,2.5-0.1,3.7c-1.6,4.7-7.4,6.6-11.6,4.5c-0.1,0.8,0.7,2.6-0.2,5.1
		c-0.3,0.8-0.4,2-1.6,2.1"/>
	<path class="st12" d="M80.9,155.3c0,0,0,0.1-0.1,0.3c-0.2,0.2-0.5,0.4-0.8,0.4c-1.1-0.1-1.9-0.9-1.9-2c0-0.6,0.2-1.1,0.5-1.5
		c0.3-0.3,0.7-0.6,1.1-0.6c0.8-0.2,1.2,0.1,1.2,0.2c0,0.1-0.4,0-1,0.2c-0.8,0.3-1.3,1-1.3,1.8c0,0.8,0.6,1.5,1.4,1.7
		C80.3,155.7,80.6,155.6,80.9,155.3z"/>
	<path class="st5" d="M59.9,146c-1.2-2.5-3.5-4.2-6.2-4.8c-2.7-0.5-5.5,0.5-7.3,2.6c-1.7,2.2-1.8,5.2-0.3,7.6
		c1.8,2.6,5.1,3.4,8.2,3.8c-2.3,2.6-5.5,4.2-9,4.3c2.5,1.7,5.7,1.8,8.3,0.4l-5,4.3c6,1.5,12.1-2.1,13.6-8.1
		c1.1-4.4-0.6-9.1-4.3-11.8"/>
	<path class="st6" d="M55.3,154.9c0.8,0.1,1.7-0.1,2.4-0.4c1.8-0.9,3-2.7,3.3-4.7c0.3-2-0.3-4-1.7-5.5c-0.6-0.6-1.2-1.1-1.9-1.6
		c0,0,0.3,0,0.7,0.2c0.6,0.3,1.1,0.7,1.6,1.1c1.6,1.5,2.3,3.7,2,5.9c-0.3,2.2-1.6,4.1-3.6,5c-0.6,0.3-1.3,0.4-1.9,0.3
		C55.5,155,55.2,154.9,55.3,154.9z"/>
	<path class="st8" d="M44.7,147.5c-0.1,0,0.4-1,1.9-1.7c2-0.7,4.1-0.9,6.2-0.4c2.1,0.4,4,1.3,5.7,2.6c0.5,0.4,1,0.8,1.4,1.3
		c0.3,0.3,0.4,0.5,0.4,0.6c0,0-0.7-0.7-2-1.5c-1.7-1.2-3.6-2-5.5-2.4c-2-0.5-4.1-0.4-6,0.2C46,146.4,45.3,146.9,44.7,147.5z"/>
	<path class="st8" d="M46.9,152.4c0-0.1,0.7,0.1,1.8,0.1c2.9,0.1,5.6-1.2,7.5-3.4c0.7-0.9,1-1.5,1.1-1.4c-0.1,0.6-0.4,1.2-0.8,1.6
		c-1.7,2.5-4.7,3.9-7.7,3.6C48.1,152.9,47.5,152.7,46.9,152.4z"/>
	<path class="st8" d="M58,162.2c0-0.1,0.7-0.5,1.6-1.5c2.5-2.6,3.5-6.2,2.5-9.7c-0.3-1.3-0.8-2.1-0.7-2.1c0.5,0.6,0.8,1.3,1,2
		c1.2,3.6,0.2,7.5-2.6,10.1C59.3,161.5,58.7,162,58,162.2z"/>
	<path class="st8" d="M73.4,133.4c-1.8-1.3-4.1-1.5-6.1-0.5c-1.2,0.6-2.3,1.6-3,2.7c-1.3,2.2-2.1,4.6-2.3,7.1
		c-0.1,1.1-0.3,2.1-0.6,3.1c0-1.1,0.1-2.1,0.2-3.2c0.2-2.6,1-5.1,2.3-7.4c0.8-1.2,1.9-2.2,3.2-2.9c1.1-0.5,2.3-0.7,3.5-0.5
		c0.8,0.1,1.6,0.4,2.2,0.9C73.2,133.1,73.4,133.3,73.4,133.4z"/>
	<path class="st8" d="M93.9,140.9c0.3-0.1,0.6-0.3,0.9-0.5c0.7-0.6,1-1.5,0.8-2.4c-0.1-0.6-0.5-1.1-1-1.4c-0.6-0.3-1.4-0.4-2.1-0.3
		c-0.5,0-0.9,0-1.3-0.1c-0.5-0.1-0.9-0.3-1.3-0.6c-0.7-0.6-1.3-1.3-1.9-2c-1.2-1.2-2.6-2.1-4.3-2.5c-1.3-0.4-2.7-0.4-4.1-0.2
		c-1.2,0.3-2.4,0.7-3.6,1.3c0.2-0.3,0.5-0.5,0.8-0.6c0.8-0.5,1.7-0.8,2.7-1c1.4-0.3,2.9-0.2,4.3,0.1c1.7,0.4,3.3,1.3,4.5,2.6
		c0.5,0.7,1.1,1.3,1.8,1.9c0.6,0.4,1.4,0.6,2.2,0.6c0.8-0.1,1.6,0.1,2.3,0.5c0.6,0.4,1,1,1.2,1.7c0.1,0.6,0,1.2-0.2,1.7
		c-0.2,0.4-0.5,0.7-0.8,1c-0.2,0.2-0.5,0.3-0.7,0.3C93.9,140.9,93.9,140.9,93.9,140.9z"/>
	<path class="st8" d="M74.3,161.1c-0.4-0.1-0.7-0.2-1.1-0.4c-2.4-1.4-3.5-4.2-2.7-6.8c0.3-0.9,0.8-1.7,1.4-2.4
		c0.7-0.7,1.5-1.3,2.4-1.8c0.9-0.5,1.7-1,2.5-1.5c0.7-0.5,1.4-1.1,1.9-1.8c0.9-1.2,1.5-2.6,1.7-4.1c0.2-1.4,0.1-2.8-0.3-4.1
		c0,0,0.1,0.1,0.1,0.3c0.1,0.3,0.2,0.5,0.3,0.8c0.3,1,0.4,2.1,0.2,3.1c-0.2,1.6-0.8,3-1.7,4.3c-0.6,0.7-1.2,1.4-2,1.9
		c-0.8,0.5-1.7,1-2.5,1.5c-0.8,0.4-1.6,1-2.3,1.7c-0.6,0.6-1.1,1.4-1.3,2.2c-0.5,1.4-0.3,3,0.3,4.3c0.5,0.9,1.2,1.7,2,2.2
		C73.9,160.9,74.3,161,74.3,161.1z"/>
	<path class="st8" d="M61.7,150.4c0-0.1,1.4,0.2,3.5-0.1c2.8-0.3,5.5-1.3,7.9-2.8c2.4-1.5,4.3-3.7,5.3-6.4c0.4-1.1,0.4-2.3,0.1-3.4
		c0.2,0.3,0.3,0.6,0.4,0.9c0.2,0.9,0.1,1.8-0.1,2.6c-0.6,2.2-2.5,4.8-5.3,6.7c-2.4,1.6-5.2,2.6-8.1,2.8c-0.9,0.1-1.8,0-2.6-0.1
		C62.3,150.5,62,150.5,61.7,150.4z"/>
	<path class="st11" d="M144.9,192.1l-4.4,4.8l-21.6,25.5c-4.3,5.1-11.9,5.7-16.9,1.4c-1.5-1.3-2.7-3-3.5-4.9L91,202.9l12.8-7.2
		c0.6,0.5,7.3,13.5,7.3,13.5c1.9-0.6,24-22.8,24-22.8l0,0l0.3-1.4c0.1-0.6,0.2-1.2,0.3-1.9c0.1-0.8,0.1-1.7-0.1-2.6
		c-0.2-1.1-0.5-2.1-0.9-3c-0.5-0.9,0.3-1.9,1.1-1.5c0.8,0.4,2.2,2.7,2.5,5.8c0.3,3.1,2.9-0.1,3.9-1.6c1.3-2,3.9-0.8,2.9,1.6
		c0.5,0.1,0.9,0.4,1.2,0.8c0.3,0.7,0.4,1.5,0.1,2.3c0.3,1,0.3,2,0.2,3C146.4,189.3,145.8,190.8,144.9,192.1z"/>
	<polygon class="st11" points="82.3,313.6 103.2,409.9 118.9,409.5 105.2,317.5 	"/>
	<path class="st6" d="M121.1,411.1l-0.1-1.8l-17.8,0.5l0.1,5.8h1.1c4.9,0.1,24.9,0.3,28.2-0.7C136.3,413.9,121.1,411.1,121.1,411.1z
		"/>
	<g class="st13">
		<path class="st3" d="M109.8,415.4c-0.3-1.4-1.2-2.6-2.4-3.5c-1.2-0.8-2.7-1.2-4.2-1.1l0.1,4.6L109.8,415.4z"/>
	</g>
	<g class="st13">
		<path class="st3" d="M128.5,412.7c0,0,5.3,1.3,4.7,2.1s-20.9,1.4-29.9,0.9v-0.4l23.6-0.4C127,414.9,127.5,412.8,128.5,412.7z"/>
	</g>
	<path class="st5" d="M103.1,415.3h0.3h0.9l3.2,0c2.7,0,6.5,0,10.7-0.1s7.9-0.3,10.6-0.4l3.2-0.2l0.9-0.1h0.3h-0.3H132l-3.2,0.1
		c-2.7,0.1-6.5,0.3-10.6,0.4s-7.9,0.1-10.6,0.2h-3.2h-0.9L103.1,415.3z"/>
	<path class="st5" d="M127,415.1c0.1-0.5,0.3-1,0.6-1.5c0.3-0.4,0.7-0.8,1.1-1.2c-0.5,0.2-1,0.6-1.3,1.1
		C127.1,414,126.9,414.6,127,415.1z"/>
	<path class="st5" d="M121.7,412.8c0.1,0,0.3-0.3,0.5-0.6s0.4-0.7,0.4-0.8s-0.3,0.3-0.5,0.6S121.6,412.8,121.7,412.8z"/>
	<path class="st5" d="M120.2,412.1c0,0,0.3-0.1,0.6-0.4s0.5-0.5,0.5-0.5s-0.3,0.1-0.6,0.4S120.2,412.1,120.2,412.1z"/>
	<path class="st5" d="M119.3,410.6c0.3,0.1,0.6,0.1,0.9,0.1c0.3,0,0.6,0,0.9-0.1C120.5,410.4,119.9,410.4,119.3,410.6L119.3,410.6z"
		/>
	<path class="st5" d="M118.9,409.5c0.3,0.2,0.7,0.3,1,0.3c0.4,0,0.7,0,1.1-0.2c-0.4,0-0.7,0-1.1,0
		C119.6,409.5,119.3,409.5,118.9,409.5z"/>
	<path class="st5" d="M122.3,411.3c0.4,0.1,0.8,0.1,1.1,0c0.4-0.1,0.8-0.2,1.2-0.3c0.2-0.1,0.5-0.2,0.7-0.3c0.1-0.1,0.2-0.2,0.3-0.3
		c0-0.2,0-0.3-0.2-0.4c-0.9-0.4-2-0.1-2.6,0.6c-0.2,0.2-0.3,0.5-0.4,0.7c0,0.1,0,0.2,0,0.3c0.1-0.3,0.3-0.6,0.5-0.9
		c0.3-0.3,0.6-0.5,1-0.6c0.4-0.1,0.9-0.1,1.4,0c0.2,0.1,0.1,0.3-0.1,0.4c-0.2,0.1-0.4,0.2-0.6,0.3c-0.4,0.1-0.8,0.2-1.2,0.3
		C122.7,411.3,122.3,411.3,122.3,411.3z"/>
	<path class="st5" d="M122.6,411.4c0.1-0.2,0.2-0.5,0.1-0.7c0-0.3-0.2-0.5-0.3-0.8c-0.2-0.3-0.6-0.5-1-0.5c-0.2,0-0.4,0.3-0.3,0.5
		c0,0,0,0,0,0c0,0.2,0.1,0.3,0.2,0.5c0.2,0.2,0.3,0.4,0.6,0.6c0.2,0.2,0.4,0.3,0.7,0.4c0,0-0.2-0.2-0.6-0.5
		c-0.2-0.2-0.4-0.4-0.5-0.6c-0.2-0.2-0.3-0.6,0-0.7c0.3,0,0.6,0.2,0.8,0.4c0.2,0.2,0.3,0.4,0.3,0.7
		C122.5,410.9,122.5,411.1,122.6,411.4z"/>
	<path class="st5" d="M103.3,410.8c0,0,0.5-0.1,1.3,0c1,0.1,2,0.4,2.9,1c0.8,0.6,1.5,1.4,1.9,2.3c0.3,0.7,0.3,1.2,0.4,1.2
		s0-0.1,0-0.3c0-0.3-0.1-0.6-0.2-0.9c-0.4-1-1-1.8-1.9-2.4c-0.9-0.6-1.9-1-3-1c-0.3,0-0.7,0-1,0
		C103.5,410.7,103.4,410.7,103.3,410.8z"/>
	<path class="st5" d="M112,413.7c1.7,0.3,3.5,0.2,5.2-0.1c0-0.1-1.2,0-2.6,0.1S112,413.6,112,413.7z"/>
	<path class="st5" d="M108.5,413.8c0,0,0.1,0.2,0.2,0.5s0.2,0.5,0.3,0.5s0.1-0.3-0.1-0.5S108.5,413.7,108.5,413.8z"/>
	<path class="st5" d="M107.2,412.3c0,0,0.1,0.2,0.3,0.4s0.4,0.3,0.4,0.2s-0.1-0.2-0.3-0.4S107.2,412.3,107.2,412.3z"/>
	<path class="st5" d="M105.2,411.7c0,0,0.3,0,0.5,0.1s0.4,0.2,0.5,0.2s-0.1-0.3-0.4-0.4S105.2,411.6,105.2,411.7z"/>
	<path class="st5" d="M103.9,411.4c0,0,0.1,0.1,0.2,0.2s0.3,0,0.3,0s-0.1-0.1-0.2-0.2S103.9,411.3,103.9,411.4z"/>
	<polygon class="st11" points="43.8,310.4 38.7,404.4 54.2,408.1 65.8,312.4 	"/>
	<polygon class="st6" points="38.3,404 35.6,415.6 53.5,415.6 54.2,408 	"/>
	<path class="st5" d="M53.8,413.9c-0.9,0.1-1.7,0.2-2.6,0.1c-1.6,0-3.8,0-6.3-0.1l-6.3-0.3c-0.9,0-1.7-0.1-2.6-0.2
		c0.9-0.1,1.7-0.2,2.6-0.1c1.6,0,3.8,0,6.3,0.1l6.3,0.3C52.1,413.7,53,413.8,53.8,413.9z"/>
	<path class="st5" d="M46.3,406.3c0.2,1.2,0.2,2.5,0,3.8c0,1.3-0.2,2.5-0.5,3.7c-0.2-1.2-0.2-2.5,0-3.8
		C45.8,408.7,46,407.5,46.3,406.3z"/>
	<g class="st13">
		<polyline class="st3" points="35.6,415.6 53.5,415.6 53.6,413.9 36,413.5 35.6,415.4 		"/>
	</g>
	<path class="st11" d="M36,208.6l-6,14.2c-1.3,4.2,1,8.8,5.2,10.1l0,0c4.2,1.4,8.7-0.9,10.1-5.1l4.8-14.1L36,208.6z"/>
	<path class="st5" d="M52.3,238.9c0,0-10.9,18.2-10.9,29L34,384.8l29.5,3.4l7.2-114.5c0,0,24.1,116.2,25.1,116.2s26.8-1.7,26.8-1.7
		L94.7,239.5L52.3,238.9z"/>
	<path class="st0" d="M117.2,388.3c-0.1,0-6.1-33.3-13.3-74.3s-13-74.4-12.8-74.4s6.1,33.3,13.4,74.3S117.3,388.3,117.2,388.3z"/>
	<path class="st0" d="M108.5,389.9c-0.1,0-6-33.6-13.2-75.1s-12.8-75.2-12.7-75.2s6,33.6,13.2,75.1S108.6,389.9,108.5,389.9z"/>
	<path class="st0" d="M100.6,389.6c-0.1,0-6.8-33.7-14.8-75.4s-14.5-75.5-14.3-75.5c0.1,0,6.8,33.7,14.8,75.4
		S100.8,389.6,100.6,389.6z"/>
	<path class="st0" d="M59.6,387.7c-0.2,0,1.5-33.3,3.6-74.3c2.1-41,4-74.3,4.1-74.3c0.1,0-1.5,33.3-3.6,74.3
		C61.5,354.5,59.7,387.7,59.6,387.7z"/>
	<path class="st0" d="M60.6,238.9c0,0,0,0.1-0.2,0.4l-0.5,1c-0.4,0.9-1,2.2-1.6,4c-1.8,5-3,10.2-3.5,15.4c-1,13.4-1.9,32-3,52.4
		s-2.1,39-2.8,52.5c-0.4,6.7-0.7,12.1-0.9,15.9l-0.3,4.3l-0.1,1.1c0,0.1,0,0.3,0,0.4c0-0.1,0-0.3,0-0.4v-1.1l0.2-4.3l0.7-15.9
		c0.6-13.4,1.5-32,2.6-52.5s2.1-39,3.1-52.5c0.6-5.3,1.8-10.5,3.8-15.4c0.7-1.8,1.3-3.1,1.7-4c0.2-0.4,0.4-0.8,0.5-1
		C60.5,239.1,60.5,239,60.6,238.9z"/>
	<path class="st0" d="M53.5,238.7c0,0.1-0.1,0.2-0.1,0.4c-0.1,0.3-0.2,0.6-0.4,1c-0.4,0.9-1,2.2-1.6,4c-1.8,4.9-3.2,10.1-4.1,15.3
		c-0.6,3.3-1.1,6.9-1.4,10.8s-0.6,8.1-0.8,12.5c-0.3,8.9-1.1,18.5-1.9,28.7c-1.5,20.4-2.9,38.8-3.9,52.2c-0.5,6.6-0.9,12-1.2,15.8
		l-0.4,4.3l-0.1,1.1c0,0.1,0,0.3-0.1,0.4c0-0.1,0-0.3,0-0.4l0.1-1.1c0.1-1,0.2-2.5,0.3-4.3c0.3-3.8,0.6-9.2,1.1-15.8
		c1-13.4,2.3-31.8,3.7-52.2c0.7-10.2,1.6-19.9,1.9-28.7c0.2-4.4,0.4-8.6,0.8-12.5s0.9-7.6,1.5-10.9c0.9-5.2,2.4-10.3,4.3-15.2
		c0.7-1.8,1.3-3.1,1.7-4l0.5-1C53.4,238.9,53.4,238.8,53.5,238.7z"/>
	<path class="st8" d="M82.6,276.6c0,0.1-5.8-1.1-12.8-2.9s-12.7-3.2-12.7-3.4s5.8,1.1,12.8,2.9S82.7,276.5,82.6,276.6z"/>
	<path class="st6" d="M52.3,238.9l5.1-14.8l-3.5-17.9l-2.8,7.9l-17-6.3c0,0,11-22.1,11.6-23.2c5-10.6,18.5-10.6,18.5-10.6l17.1,0.5
		c5.5-0.4,10.9,1.7,14.7,5.7c4.9,4.9,15.4,27.7,15.4,27.7L95.9,216l-5.5-10.3l1,14.1l3.6,21.4L52.3,238.9z"/>
	<path class="st5" d="M88,179.1c0,0.1-0.5,0.1-1.3,0.4c-1.1,0.5-2,1.3-2.6,2.3c-0.9,1.5-1.3,3.3-1.1,5.1c0.3,2.2,1,4.2,2,6.2
		c2,4.3,3.7,8.1,5,10.9l1.5,3.3c0.2,0.4,0.4,0.8,0.5,1.3c-0.3-0.4-0.5-0.8-0.7-1.2l-1.6-3.3c-1.4-2.8-3.2-6.6-5.1-10.9
		c-1-2-1.7-4.1-2-6.4c-0.2-1.9,0.2-3.7,1.2-5.3c0.7-1.1,1.7-1.9,2.9-2.3c0.3-0.1,0.7-0.2,1-0.2C87.9,179.1,88,179.1,88,179.1z"/>
	<path class="st5" d="M57.5,225c-0.2,0-2.2-9.3-4.6-20.7s-4.2-20.8-4.1-20.8s2.2,9.3,4.6,20.7S57.7,225,57.5,225z"/>
	<g class="st14">
		<path d="M58.8,223.8c3.2,2.4,8,1.6,11.9,1c4-0.6,7.7-2.6,10.4-5.6c1.3-1.3,1.9-3.1,1.9-4.9c-0.2-1.8-1.7-3.5-3.5-3.3
			c-2,0.3-3,2.6-4,4.4c-3.3,5.9-10,9-16.6,7.9C58.9,223.1,58.2,223.4,58.8,223.8z"/>
	</g>
	<path class="st5" d="M83.3,211.1c0.1,0.4,0.1,0.8,0,1.2c-0.1,1.1-0.4,2.2-0.8,3.3c-1.5,3.5-4.1,6.3-7.5,8
		c-3.4,1.6-7.1,2.4-10.8,2.2c-1.1,0-2.2-0.2-3.3-0.3c-0.4,0-0.8-0.1-1.2-0.3c0-0.1,1.7,0.2,4.5,0.3c3.6,0.1,7.3-0.7,10.6-2.3
		c3.3-1.6,5.9-4.4,7.4-7.7C82.7,214,83.1,212.6,83.3,211.1z"/>
	<g class="st14">
		<path d="M83.3,189c1,8.1,2.3,14.7,4,22.7c0.8,3.9,1.8,8,4.5,10.9l-1.6-17.9L83.3,189z"/>
	</g>
</g>
</svg>
