<svg xmlns="http://www.w3.org/2000/svg" viewBox="0 0 566.93 566.93"><defs><style>.cls-1{fill:#6d4ff8;}</style></defs><g id="Layer_2" data-name="Layer 2"><g id="Layer_1-2" data-name="Layer 1"><path class="cls-1" d="M243.23,209.7l.46.09.45.1c.5.1,1,.22,1.49.35l.34.08a37.26,37.26,0,0,1,3.62,1.17l.31.13c.49.19,1,.39,1.47.61l.32.14a34.91,34.91,0,0,1,3.38,1.76l.22.13,1.37.86.35.24c.45.3.88.61,1.31.92l.23.17c.51.39,1,.78,1.5,1.2l.15.13c.42.36.83.72,1.24,1.1l.38.36c.33.32.67.65,1,1l.36.37c.43.45.85.92,1.26,1.4.59.7,1.18,1.46,1.8,2.32l0,.05c.42.58.8,1.16,1.18,1.75l.35.57c.27.45.53.89.78,1.34l.33.6c.28.55.56,1.1.82,1.65,0,.09.09.18.13.28.29.64.56,1.29.82,1.95l.21.59c.18.48.35,1,.5,1.45l.21.66c.16.54.31,1.08.44,1.62l.12.44c.16.69.3,1.37.42,2.06,0,.19.05.38.08.56.09.53.16,1.05.22,1.58,0,.11,0,.22,0,.33a21.07,21.07,0,0,0,2.65-1.2l.39-.21c.36-.2.71-.42,1.06-.64l.34-.22c.44-.29.88-.6,1.29-.92l.18-.15c.36-.28.71-.58,1.05-.88l.34-.32c.31-.29.61-.58.9-.89l.24-.25c.36-.39.7-.8,1-1.21.07-.09.14-.19.22-.28.25-.34.5-.68.74-1l.26-.39c.25-.39.49-.79.72-1.19l.12-.2c.26-.48.49-1,.72-1.46.06-.12.11-.25.16-.38.17-.39.33-.78.47-1.18.06-.15.11-.29.16-.43.18-.52.34-1.05.48-1.6h0a22,22,0,0,0,.69-5.49h0V162.75h0V148.12a21.95,21.95,0,0,0-43.89,0Z"/><path class="cls-1" d="M213,217.69c.47-.4.95-.78,1.44-1.15.16-.13.33-.25.5-.37.41-.3.82-.59,1.24-.87l.4-.27c.53-.35,1.07-.68,1.62-1l.49-.27c.43-.24.86-.47,1.3-.69l.52-.27c.57-.28,1.15-.54,1.73-.79l.38-.15q.72-.3,1.47-.57l.58-.21c.53-.18,1.06-.35,1.6-.51l.27-.08c.62-.18,1.24-.33,1.86-.48a2.1,2.1,0,0,0,.24-.06V140.81a21.95,21.95,0,1,0-43.9,0V241.64l28.17-23.88Z"/><path class="cls-1" d="M360.28,221.28v14.63a21.95,21.95,0,1,0,43.89,0V177.39a21.95,21.95,0,1,0-43.89,0Z"/><path class="cls-1" d="M161.85,305.87l.13,0,.62.16.38.1.72.2.34.1.87.24.24.07,1.12.34h0c1.66.5,3.5,1.07,5.57,1.72s4.3,1.36,6.57,2c4.52,1.34,9,2.53,11.71,2.67h.22l60.33-51.15.35-.33a22,22,0,0,0,6.69-10.86c.16-.62.29-1.25.4-1.88h0a21.33,21.33,0,0,0,.3-4.36,21.65,21.65,0,0,0-4.11-12.09c-.39-.55-.75-1-1.09-1.41a21.9,21.9,0,0,0-29.43-3.71c-.51.37-1,.75-1.5,1.17l-31.15,26.41a7,7,0,0,1-1,.69,8.53,8.53,0,0,1-1,.52l-27.84,11.2a6.88,6.88,0,0,0-4.25,7.48Z"/><path class="cls-1" d="M301.75,221.28a22.44,22.44,0,0,0,.69,5.49h0a21.77,21.77,0,0,0,2,5.12,22,22,0,0,0,15.54,11,22.12,22.12,0,0,0,7.38,0,21.91,21.91,0,0,0,18.26-21.64V162.75a22,22,0,0,0-43.9,0Z"/><path class="cls-1" d="M181.29,361.86a15.7,15.7,0,0,0,15.5,13.05h177a15.74,15.74,0,0,0,15.73-15.73V271.75l-.09,0-.39.07c-.58.11-1.17.21-1.76.29l-.68.09c-.52.06-1,.11-1.57.15l-.65.05c-.72,0-1.45.07-2.17.07s-1.14,0-1.71,0l-.52,0-1.2-.09-.55-.06-1.28-.16-.39-.06c-.55-.08-1.09-.18-1.63-.29l-.39-.08-1.23-.29-.52-.14c-.38-.1-.76-.2-1.13-.32l-.47-.14c-.52-.16-1-.33-1.54-.52h0c-.5-.19-1-.38-1.48-.59l-.46-.2c-.35-.15-.7-.3-1-.47l-.49-.23c-.37-.18-.74-.37-1.1-.57l-.34-.17c-.46-.26-.92-.52-1.38-.8L363,267c-.35-.21-.69-.43-1-.65l-.44-.31-.93-.65-.39-.29c-.42-.32-.84-.65-1.25-1l-.05,0c-.39-.32-.78-.66-1.16-1l-.36-.34c-.28-.26-.55-.51-.82-.78l-.38-.37c-.28-.29-.57-.59-.84-.89a3.45,3.45,0,0,1-.26-.28c-.36-.39-.7-.79-1-1.19l-.25-.32c-.25-.31-.5-.62-.74-.94l-.33-.44-.65-.91-.28-.42c-.3-.44-.59-.88-.86-1.33l-.06-.1c-.25-.42-.5-.86-.74-1.29-.08-.15-.16-.31-.25-.46l-.51-1-.24-.5c-.17-.37-.34-.74-.5-1.11l-.16-.37c-.2-.46-.38-.91-.55-1.38l-.33.28-.65.55c-.18.15-.36.3-.55.44l-.68.53-.56.42-.72.5-.57.39c-.25.17-.51.33-.77.49l-.55.34-.87.51-.48.27-1.31.68-.09,0c-.46.22-.93.44-1.41.65l-.49.2-1,.4-.59.21-.9.33-.63.2-.88.27-.66.19-.88.23-.68.15-.89.19-.68.13-.92.15-.67.1-1,.11-.63.07-1.09.08-.54,0c-.54,0-1.09,0-1.64,0s-1.31,0-2-.06l-.54,0-1.57-.14-.4-.05c-.64-.07-1.26-.17-1.89-.28l-.45-.08-1.48-.31-.51-.12c-.61-.15-1.21-.32-1.81-.5l-.22-.07c-.53-.16-1.06-.34-1.58-.53l-.52-.19c-.48-.18-1-.38-1.44-.58l-.32-.13c-.56-.25-1.12-.51-1.67-.79l-.45-.23c-.43-.22-.85-.45-1.27-.69l-.44-.25c-.53-.31-1.05-.63-1.56-1l-.29-.19c-.42-.29-.84-.58-1.26-.89l-.44-.32c-.44-.34-.87-.67-1.29-1l-.18-.15c-.47-.39-.92-.8-1.37-1.22l-.38-.36c-.36-.34-.7-.68-1-1-.11-.1-.21-.21-.32-.32q-.63-.67-1.23-1.38l-.25-.3q-.49-.58-1-1.2c-.05-.08-.12-.15-.18-.23-.06.09-.13.17-.19.25l-.66.84-.37.44c-.25.3-.5.59-.76.87l-.31.36c-.74.8-1.51,1.57-2.32,2.3a4,4,0,0,1-.31.27c-.3.27-.6.54-.92.8l-.4.33c-.29.24-.59.47-.88.69l-.44.33-.92.65-.42.29c-.35.24-.71.46-1.06.69l-.31.19c-.94.57-1.9,1.1-2.89,1.58l-.38.18-1.11.51-.48.2q-.53.23-1.05.42l-.52.2-1.07.37-.49.16c-.42.13-.84.26-1.27.37l-.32.1c-.54.14-1.08.27-1.63.39l-.22,0q-.71.15-1.41.27l-.14,0-.07.18c-.24.7-.49,1.39-.78,2.07,0,.08-.07.16-.1.25q-.39.93-.84,1.83l-.18.37c-.32.65-.67,1.29-1,1.92l-.19.33c-.34.57-.69,1.13-1.06,1.68l-.18.28c-.41.6-.85,1.19-1.29,1.77l-.27.34c-.44.55-.88,1.08-1.34,1.6l-.12.14c-.49.55-1,1.08-1.54,1.6l-.33.32c-.54.52-1.09,1-1.67,1.52L215.3,311.62c27,.11,70.83,5.61,85.79,38.3a7.31,7.31,0,1,1-13.3,6.09c-16-34.95-81.25-29.89-91.45-28.88a13.89,13.89,0,0,1-5.67,1.06h-.12c-6,0-14.69-2.76-23.05-5.39l-.12,0-.33-.1L181,360.59A7.93,7.93,0,0,1,181.29,361.86Z"/><path class="cls-1" d="M283.46,0C126.91,0,0,126.91,0,283.46S126.91,566.93,283.46,566.93,566.93,440,566.93,283.46,440,0,283.46,0ZM418.81,462.7H148.12a7.32,7.32,0,0,1,0-14.63h29.27V382.56A30.27,30.27,0,0,1,167,365.05l-18.43-50.29h0a6.65,6.65,0,0,1-.23-.76c0-.07,0-.14-.05-.21s-.06-.27-.08-.41l-5.58-35.9a21.45,21.45,0,0,1,13.25-23.3l14.19-5.71V140.81A36.57,36.57,0,0,1,238.6,123a36.53,36.53,0,0,1,60.86,12.36A36.55,36.55,0,0,1,358,150a36.56,36.56,0,0,1,60.82,27.37v58.52a36.7,36.7,0,0,1-14.64,29.24v94a30.36,30.36,0,0,1-14.63,26v62.93h29.27a7.32,7.32,0,0,1,0,14.63Z"/><polygon class="cls-1" points="373.81 389.54 196.79 389.54 192.02 389.54 192.02 448.07 374.91 448.07 374.91 389.54 373.81 389.54"/></g></g></svg>