<svg xmlns="http://www.w3.org/2000/svg" viewBox="0 0 566.93 566.93"><defs><style>.cls-1{fill:#6d4ff8;}</style></defs><g id="Layer_2" data-name="Layer 2"><g id="Layer_1-2" data-name="Layer 1"><path class="cls-1" d="M283.46,0C126.91,0,0,126.91,0,283.46S126.91,566.93,283.46,566.93,566.93,440,566.93,283.46,440,0,283.46,0ZM439.29,366.21l-121.52,61.9a20,20,0,0,1-16.24.84l-80.2-30.8H198.25v6.68h0a6.05,6.05,0,0,1-6.05,6.05H122.14a6.05,6.05,0,0,1-6.06-6.05V299.74h0a6.05,6.05,0,0,1,6.06-6.05H192.2a6.05,6.05,0,0,1,6.05,6.05v9.74h39.59a6.23,6.23,0,0,1,1.67.23l19.84,5.71a5.48,5.48,0,0,1,.46-1.05,71.55,71.55,0,0,1,53.77-28.62V270.51L295.09,252a28.94,28.94,0,0,1-15.25,4.15,41.41,41.41,0,0,1-28.77-12.64c-13.34-13.34-22-55.16-22.92-59.89a6.24,6.24,0,0,1,0-2.36,6.06,6.06,0,0,1,7.12-4.76c4.73.94,46.55,9.58,59.9,22.93,13,13,16.2,31.5,8.51,44l9.9,9.9V194.3a6.06,6.06,0,0,1,12.11,0v15.11l5.66-5.67a29.68,29.68,0,0,1-3.92-19.36,42.34,42.34,0,0,1,12.45-24.69c13.35-13.35,55.17-22,59.89-22.93a6.3,6.3,0,0,1,2.37,0,6,6,0,0,1,4.75,7.12c-.93,4.73-9.57,46.55-22.92,59.9a42.48,42.48,0,0,1-24.7,12.45,35.27,35.27,0,0,1-4.11.24,28.65,28.65,0,0,1-15.22-4.2l-14.25,14.26v59.15c32.73,2.44,59,24.36,63.31,52.23l34.38-10.74a21.15,21.15,0,0,1,15.91,39Z"/><path class="cls-1" d="M348.85,186.24l0,0a6.05,6.05,0,1,1,8.52,8.6L349,203.22a19,19,0,0,0,8.86,1,30.35,30.35,0,0,0,17.56-9c7.31-7.32,14-29.8,17.56-44.53-14.73,3.57-37.22,10.24-44.53,17.56a30.3,30.3,0,0,0-9,17.55,18.93,18.93,0,0,0,1,8.86Z"/><path class="cls-1" d="M128.19,398.78h57.95v-93H128.19ZM172.4,377h9.87v9.87H172.4Zm-18.58,0h9.87v9.87h-9.87Z"/><path class="cls-1" d="M286.61,208c-7.33-7.33-29.8-14-44.54-17.57,3.58,14.74,10.25,37.22,17.56,44.53a26.27,26.27,0,0,0,26.42,8l-8.42-8.42a6.05,6.05,0,0,1,8.56-8.56l8.42,8.42A26.25,26.25,0,0,0,286.61,208Z"/><path class="cls-1" d="M427,338.73l-80.32,25.09A21.12,21.12,0,0,1,334.1,368H277.05a5.55,5.55,0,0,0-5.55,5.55v2.59a6.06,6.06,0,0,1-12.11,0v-2.59a17.68,17.68,0,0,1,17.66-17.66H334.1a9.07,9.07,0,0,0,5.87-2.19l0,0a9.1,9.1,0,0,0-5.89-16.07H293.68a6,6,0,0,1-1.68-.24l-55-15.81H198.25V386h24.2a6.18,6.18,0,0,1,2.17.4l81.25,31.21a7.89,7.89,0,0,0,6.4-.33l121.53-61.9c.23-.12.45-.25.67-.38A9,9,0,0,0,427,338.73Z"/><path class="cls-1" d="M334.1,325.53a21.28,21.28,0,0,1,21.25,21.25c0,.58-.13,1.12-.17,1.69l22.12-6.91c-2.61-24.64-27.46-44-57.67-44a62,62,0,0,0-48,21.43l22.86,6.57Z"/></g></g></svg>