<svg xmlns="http://www.w3.org/2000/svg" viewBox="0 0 566.93 566.93"><defs><style>.cls-1{fill:#6d4ff8;}</style></defs><g id="Layer_2" data-name="Layer 2"><g id="Layer_1-2" data-name="Layer 1"><path class="cls-1" d="M337.09,205.59s0,.08,0,.14c.08.32.16.68.24,1s.2.68.32,1a1.73,1.73,0,0,1,.12.28,3,3,0,0,1,.24.48c.2.28.32.6.52.91s1.09,1.42.82,1.15c.46.5.94,1,1.42,1.45l.1.11c.26.18.53.35.78.53.43.27.87.5,1.32.74-.34-.2,1,.36,1.32.46s.86.24,1.3.32h.06a15.87,15.87,0,0,0,1.95,0,5.74,5.74,0,0,0,.6,0s.41-.06.56-.09c.72-.2,1.4-.36,2.08-.6l.17-.05.11-.07c.28-.16.6-.32.92-.48a12.45,12.45,0,0,0,1.27-.82c-.31.2.8-.73,1-1a4.53,4.53,0,0,0,.57-.59l.07-.09.08-.12a20.79,20.79,0,0,0,1.2-2v0c.09-.24.18-.49.27-.72a12.48,12.48,0,0,0,.44-1.7c0-.09.11-1.3.11-1.54a8.49,8.49,0,0,0-.12-1.72c0,.25,0,.38.06.46,0-.13-.06-.39-.09-.5-.24-.8-.4-1.56-.68-2.32,0,0,0,0,0-.05a2.65,2.65,0,0,1-.14-.23c-.2-.28-.32-.6-.52-.91l-.66-1-.1-.1c-.49-.49-1-1-1.46-1.44.24.25-.86-.63-1.14-.8a14.31,14.31,0,0,0-1.34-.73l-.1,0a17.78,17.78,0,0,0-2.08-.6l-.28-.07h-.28c-.36,0-.76,0-1.12,0s-.55,0-.83,0l-.67.07-.45.09a10,10,0,0,0-1,.28c-.24,0-.93.34-1.11.4-.57.31-1.15.62-1.73,1-.05,0-.2.17-.35.27l-.49.45c-.36.36-.72.72-1.06,1.09-.09.14-.68.89-.82,1.15a15,15,0,0,0-.72,1.32,15.21,15.21,0,0,0-.56,1.91c0,.07,0,.23-.07.4s-.05.4-.05.44a20.92,20.92,0,0,0,0,2.24A1.21,1.21,0,0,1,337.09,205.59Z"/><path class="cls-1" d="M340,147.27h-.16l-1,.15a10,10,0,0,0-1.08.16c-.92.16-1.79.32-2.67.52-1.6.32-3.16.75-4.72,1.22l-.53.15c-1.78.57-3.53,1.18-5.23,1.89l-1.71.77c-.8.4-1.6.8-2.36,1.2a54.72,54.72,0,0,0-5,2.92c-.72.48-1.44,1-2.16,1.48-.32.24-.68.52-1,.76-.09.06-.29.2-.44.32a60.49,60.49,0,0,0-7.79,7.31q-1.08,1.2-2,2.4c-.2.24-.44.52-.64.79.84-1-.24.32-.32.44-1,1.44-2,2.88-2.92,4.36-1,1.68-1.95,3.36-2.79,5.07-.4.8-.76,1.6-1.12,2.4-.06.11-.1.19-.13.26l-.51,1.26a64.35,64.35,0,0,0-3.12,10.83c-.18,1-.33,1.95-.47,2.93,0,.26-.18,1.72-.21,2-.16,1.83-.24,3.67-.24,5.55,0,.17,0,.33,0,.5a64.28,64.28,0,0,0,.5,7.45h0c.05.34.12.83.12.85.08.6.2,1.2.32,1.8.28,1.32.56,2.56.88,3.84a56.48,56.48,0,0,0,2.28,7.07c0,.12.38,1,.41,1,.19.44.39.89.59,1.32.52,1.15,1.12,2.27,1.72,3.39a64.25,64.25,0,0,0,3.83,6.2c.36.44.68.92,1,1.39s.48.6.12.16l.56.68c.8,1,1.64,2,2.48,2.88a58.58,58.58,0,0,0,10.18,8.88c1.86,1.26,3.79,2.4,5.76,3.47,1.08.6,2.2,1.12,3.32,1.64l.81.35c.48.19,1,.37,1.43.57a60.94,60.94,0,0,0,13.42,3.49l1.24.14c.64.08,1.28.12,1.92.16,1.12.08,2.24.16,3.36.16a74.45,74.45,0,0,0,8.43-.4h.09l.19,0a7.38,7.38,0,0,1,.92-.16c.72-.12,1.43-.28,2.15-.4,1.24-.24,2.44-.52,3.64-.84a68.12,68.12,0,0,0,7.83-2.55c.28-.12.84-.36.24-.12l.84-.36c.64-.32,1.28-.6,1.92-.92,1.08-.52,2.16-1.08,3.2-1.68a59.08,59.08,0,0,0,6.79-4.44h0l.18-.15a7.75,7.75,0,0,1,.68-.55c.56-.44,1.08-.88,1.6-1.36.92-.8,1.8-1.6,2.63-2.44a64.15,64.15,0,0,0,5.4-6c.08-.1.18-.18.27-.28.43-.61.9-1.21,1.33-1.83,1-1.4,1.88-2.84,2.71-4.32s1.64-3,2.36-4.55a33.76,33.76,0,0,0,1.64-3.92,55.48,55.48,0,0,0,3.64-20.18c0-1.52,0-3-.16-4.4,0-.72-.08-1.39-.16-2.07,0-.4-.08-.76-.12-1.16a2.79,2.79,0,0,1,.07.34l0-.18a63.14,63.14,0,0,0-1.76-8.19,66.64,66.64,0,0,0-2.32-6.72c-.4-.88.32.76-.08-.12-.12-.24-.24-.52-.36-.76-.24-.52-.48-1-.72-1.52-.48-1-1-2-1.56-3a67.51,67.51,0,0,0-3.91-6.16l-.68-.92s-.56-.75-.2-.28-.6-.71-.76-.91c-.72-.84-1.44-1.68-2.2-2.52a63.76,63.76,0,0,0-5-4.88c-.48-.44-1-.88-1.48-1.28-.2-.16-1.24-1-.92-.75s-.76-.56-1-.72c-.44-.32-.88-.64-1.36-1a61.31,61.31,0,0,0-6.23-3.76c-1.08-.6-2.16-1.12-3.28-1.64l-.69-.34-.31-.12-.53-.2a71,71,0,0,0-6.83-2.27A62.25,62.25,0,0,0,340,147.27Zm14.27,36.32a22.28,22.28,0,0,1,14.75,20.1,4.5,4.5,0,0,1,0,.64,4.41,4.41,0,0,1,0,.73c-.48,9.95-7.56,19-17.58,20.81a21.94,21.94,0,0,1-21.1-35.69A21.91,21.91,0,0,1,354.31,183.59Z"/><path class="cls-1" d="M355,210.51l-.05.06C354.75,210.8,354.63,211,355,210.51Z"/><path class="cls-1" d="M294.22,181.9c-.19.38-.1.21,0,0Z"/><path class="cls-1" d="M293,247.89a70.77,70.77,0,0,1-5.08-7.35c-.37-.6-.73-1.2-1.08-1.81l-.6-1.09c-.5-.91-1-1.84-1.44-2.77a1,1,0,0,1-.07-.15c-.4-.81-.78-1.63-1.15-2.45a70.39,70.39,0,0,1-15.49,22.09q-2,2-4.2,3.77l19.65,24.36q9.83-12.15,19.64-24.34A66.29,66.29,0,0,1,293,247.89Z"/><path class="cls-1" d="M222.49,134.87l.38,0,.92.05a67.18,67.18,0,0,1,17,3.06,71.27,71.27,0,0,1,16,7.42,67.28,67.28,0,0,1,14.78,12.4,70.21,70.21,0,0,1,11.9,18.49c.86-1.95,1.82-3.86,2.86-5.72l.13-.23c.42-.75.85-1.49,1.3-2.22l.88-1.4c.28-.43.56-.87.85-1.3.64-.95,1.3-1.88,2-2.8.11-.16.24-.3.35-.46.6-.77,1.2-1.54,1.83-2.29.23-.28.46-.55.7-.82.52-.61,1-1.2,1.58-1.79l.9-1c.48-.5,1-1,1.46-1.48l1.08-1.07c.38-.36.78-.7,1.17-1.06,1.05-1,2.14-1.88,3.25-2.77l.39-.32c.7-.55,1.42-1.09,2.14-1.61l.4-.29c.78-.56,1.56-1.1,2.36-1.62l0,0c1.7-1.11,3.44-2.17,5.25-3.13a70.52,70.52,0,0,1,28.37-8c2.12-.14,4.24-.16,6.36-.09q-2.61-1.61-5.28-3c-2.8-1.48-5.92-3-8.47-4-23.1-9.27-49-11-73.61-7.76-15.38,2-30.47,6.73-43.59,14.78C219.58,134.8,221,134.81,222.49,134.87Z"/><path class="cls-1" d="M355.07,210.4l-.08.08,0,0Z"/><path class="cls-1" d="M126.06,447.81l0,0a.22.22,0,0,1,0-.08C126,447.56,126.06,447.81,126.06,447.81Z"/><path class="cls-1" d="M126.11,417.64l0,.16c0,.12,0,.2,0,.28a2.28,2.28,0,0,0,.09-.44Z"/><path class="cls-1" d="M223.69,195c.28.11.75.22,0,0Z"/><path class="cls-1" d="M126.35,417.49l0-.08a.8.8,0,0,1-.16.15h0Z"/><path class="cls-1" d="M337.8,200.29h0C337.88,200.09,338,199.84,337.8,200.29Z"/><path class="cls-1" d="M350.93,195c.28.11.74.22,0,0Z"/><path class="cls-1" d="M126.14,419.35v26.5c0,.58,0,1.16,0,1.71,0-.14,0,.22,0,.45,0-.07,0-.12-.06-.16s0,0,0,0c.15.26.07.18-.25-.21,0,.08.12.12.16.2l.2.22a.9.9,0,0,1,.14.06h.18a15.85,15.85,0,0,1,2,0h24.1V417.64H126.14C126.17,418.22,126.14,418.81,126.14,419.35Z"/><path class="cls-1" d="M386.19,261.85a63.31,63.31,0,0,1-7.35,4.38c-1,.51-2,1-3.08,1.46l-.42.19-1,.41c-1.94.84-3.92,1.6-5.93,2.25a67.63,67.63,0,0,1-17.29,3.2l-.89.05-.59,0c-1.08,0-2.16.06-3.24.05-.22,0-.43,0-.64,0-.78,0-1.56-.05-2.34-.09l-1.6-.1c-.83-.07-1.66-.15-2.48-.24l-1.25-.16c-1-.13-2-.28-3-.45l-.49-.09A69.59,69.59,0,0,1,313,264.91l-.55.68-7.86,9.74c0,.16.08.32.11.49a78.41,78.41,0,0,0,1.76,7.95,152.43,152.43,0,0,0,5.91,17.78c.4.92.76,1.88,1.16,2.8.05.12.1.24.16.36.2.52.44,1,.64,1.48.88,2,1.76,3.91,2.71,5.87,2.12,4.36,4.4,8.59,6.88,12.75,2.76,4.59,5.67,9.11,8.83,13.47.88,1.15,1.72,2.31,2.6,3.47.08.12.76,1,.36.48s.32.36.4.48c.4.48.79,1,1.19,1.52,1.92,2.36,3.88,4.72,5.92,7a177.13,177.13,0,0,0,24.73,23c1.31-1.87,2.56-3.78,3.76-5.7a146.84,146.84,0,0,0,7.91-14.59c.64-1.28,1.24-2.6,1.8-3.92.1-.2.61-1.39.55-1.23.22-.52.44-1.06.65-1.6,1.08-2.64,2.08-5.32,3-8A174.19,174.19,0,0,0,390.51,322q1-4.43,1.8-8.87c.28-1.64.56-3.32.8-5l.12-1c0-.07.09-.54.12-.8h0c0-.27,0-.19,0,0h0c0,.56.08-.48.08-.48,0-.44.12-.84.16-1.28.76-6.35,1.2-12.71,1.36-19.06a169.59,169.59,0,0,0-1.63-29.23A70.59,70.59,0,0,1,386.19,261.85Z"/><path class="cls-1" d="M126.15,417.62v0l0,0Z"/><path class="cls-1" d="M182.16,247.73c.6.52,1.24,1,1.84,1.55a6,6,0,0,0,.72.61l.16.11c1.2.88,2.39,1.76,3.67,2.56a63.12,63.12,0,0,0,7.65,4.23l.11,0c.4.16.75.32,1.11.48-.12,0-.67-.28,0,0,1.4.56,2.84,1.08,4.28,1.56a65.2,65.2,0,0,0,7.75,2c.84.12,1.64.28,2.48.4l.46.08.46,0c1.36.16,2.76.24,4.11.32a60.88,60.88,0,0,0,7.64-.12c.72,0,1.48-.12,2.2-.2a4,4,0,0,0,.59-.05l.24,0-.24,0c-.24,0-.5.1,0,0q1.74-.24,3.48-.6a69,69,0,0,0,6.75-1.75c1.2-.36,2.36-.8,3.52-1.24l1.48-.6c-1.08.44.48-.24.76-.36a64.87,64.87,0,0,0,11.83-7.1l.72-.58c.48-.39.92-.79,1.39-1.19.8-.68,1.56-1.4,2.32-2.12q2.52-2.46,4.8-5.16c.4-.48.8-1,1.16-1.44-.72.88.28-.39.48-.67.64-.88,1.23-1.72,1.79-2.6a58.09,58.09,0,0,0,3.56-6.12c.56-1.11,1.08-2.23,1.56-3.35-.44,1,.08-.16.2-.52s.36-1,.56-1.48a69.48,69.48,0,0,0,2.08-6.91c.32-1.24.56-2.48.8-3.72.12-.52.2-1.08.27-1.6,0-.13.05-.27.07-.42s0-.08,0-.14a66.27,66.27,0,0,0,.44-7.47c0-.18,0-.36,0-.54a69.34,69.34,0,0,0-.71-9.36c-.1-.55-.21-1.11-.33-1.67,0-.11-.05-.22-.07-.33-.48-2.1-1-4.17-1.71-6.2-.32-.92-.64-1.84-1-2.76q-.13-.37-.3-.78l-.06-.17-.14-.32-.06-.14c.18.47-.09-.17-.16-.35a71.61,71.61,0,0,0-5.36-9.63c-.55-.88-1.19-1.72-1.79-2.56l-.06-.07c-.05-.06-.15-.17-.3-.36s-.44-.52-.68-.8c-1.08-1.32-2.28-2.64-3.48-3.88-1.36-1.36-2.76-2.68-4.2-3.92-.59-.49-1.19-1-1.79-1.44l-.48-.35c-.32-.24-.68-.52-1-.76a63.57,63.57,0,0,0-9.51-5.6c-.48-.24-1-.44-1.44-.68a3.61,3.61,0,0,1-.39-.19l-.13,0c-.84-.32-1.64-.68-2.48-1-1.68-.6-3.39-1.15-5.11-1.59-1.92-.48-3.88-.92-5.84-1.24-.36,0-.72-.12-1.08-.16l-.37-.06-.23,0-2.75-.24a59.31,59.31,0,0,0-27.26,4.47,1,1,0,0,1-.16.06l-.59.26c-1.28.6-2.52,1.24-3.76,1.92a71.74,71.74,0,0,0-7.07,4.52l-.59.46c.15-.11-.38.3-.41.34-.56.47-1.16.95-1.72,1.43q-1.5,1.26-2.88,2.64a60,60,0,0,0-5.4,6c.23-.27-.33.46-.43.59-.2.32-.44.6-.64.92-.4.52-.76,1-1.12,1.6-.76,1.16-1.52,2.36-2.2,3.56s-1.4,2.44-2,3.71l-1,2c0,.08-.14.31-.2.44l-.19.48a60.91,60.91,0,0,0-2.64,8.15c-.36,1.48-.68,3-1,4.52-.12.64-.24,1.32-.32,2,.16-1.08-.08,1.08-.12,1.32a60.81,60.81,0,0,0-.2,9.35c0,.88.12,1.79.2,2.67.08.44.12.88.16,1.32,0,.06.09.69.08.67.2,1.43.5,2.86.8,4.29a68.75,68.75,0,0,0,2.88,9.35c.05.15.1.26.14.36,0-.05,0,0,.13.28s.36.76.52,1.16c.28.68.64,1.35,1,2,.72,1.44,1.48,2.84,2.32,4.2a53.22,53.22,0,0,0,5,7A62.41,62.41,0,0,0,182.16,247.73Zm21-57.55a21.89,21.89,0,0,1,23.93-6.59,22.29,22.29,0,0,1,14.76,20.1c0,.21,0,.42,0,.64a5.85,5.85,0,0,1,0,.73c-.49,9.95-7.56,19-17.58,20.81a21.94,21.94,0,0,1-21.1-35.69Z"/><path class="cls-1" d="M217,394.78c1.84,1.68,3.72,3.32,5.68,4.87.32.28.68.52,1,.8l1.44,1.08c1,.72,1.95,1.4,2.91,2.08a7,7,0,0,1,2,2H337a7.25,7.25,0,0,1,2-2.08c1.24-.88,2.48-1.76,3.72-2.68.24-.2.52-.4.8-.6.52-.44,1.08-.84,1.6-1.27,2.19-1.8,4.31-3.68,6.39-5.64a120,120,0,0,0,9.24-9.76,183.64,183.64,0,0,1-60.55-80.79A151,151,0,0,1,295,287.27l-7.2,8.93c-1.87,2.32-6.59,2.36-8.47,0-1.16-1.44-2.32-2.84-3.47-4.28q-1.95-2.4-3.89-4.82l0,.11A173.66,173.66,0,0,1,253,331.4a187.18,187.18,0,0,1-46.75,52.23A123,123,0,0,0,217,394.78Z"/><path class="cls-1" d="M209.86,205.59s0,.08,0,.14c.08.32.16.68.24,1s.2.68.32,1c0,0,.07.15.12.28a3,3,0,0,1,.24.48c.2.28.32.6.52.91s1.09,1.42.81,1.15c.46.5.94,1,1.43,1.45l.1.11c.25.18.53.35.78.53.43.27.87.5,1.32.74-.34-.2,1,.36,1.31.46s.87.24,1.3.32h.06a16,16,0,0,0,2,0,5.74,5.74,0,0,0,.6,0s.4-.06.56-.09c.72-.2,1.4-.36,2.08-.6l.16-.05.12-.07c.28-.16.6-.32.92-.48a12.45,12.45,0,0,0,1.27-.82c-.31.2.8-.73,1-1a4.61,4.61,0,0,0,.58-.59l.07-.09a1.27,1.27,0,0,0,.07-.12,20.79,20.79,0,0,0,1.2-2l0,0,.26-.72a11.17,11.17,0,0,0,.44-1.7c0-.09.12-1.3.12-1.54a12.88,12.88,0,0,0-.08-1.37,3,3,0,0,0-.08-.39c-.24-.8-.4-1.56-.68-2.32l0-.05c0-.06-.07-.12-.14-.23-.2-.28-.32-.6-.52-.91s-.43-.66-.65-1l-.11-.1c-.48-.49-1-1-1.46-1.44.24.25-.86-.63-1.13-.8-.43-.27-.88-.5-1.34-.73l-.1,0a17.78,17.78,0,0,0-2.08-.6l-.28-.07h-.28c-.36,0-.76,0-1.12,0s-.56,0-.84,0l-.66.07-.46.09a9.22,9.22,0,0,0-1,.28c-.24,0-.94.34-1.11.4-.58.31-1.15.62-1.73,1l-.35.28c-.15.13-.43.37-.49.44-.36.36-.72.72-1.06,1.09-.1.14-.68.89-.82,1.15a15,15,0,0,0-.72,1.32,15.21,15.21,0,0,0-.56,1.91c0,.07,0,.23-.07.4s-.05.4-.05.44a20.92,20.92,0,0,0,0,2.24A1.21,1.21,0,0,1,209.86,205.59Z"/><path class="cls-1" d="M414.81,417.64H164.62v30.47c1.62,0,3.25.06,4.87.06H423.2l15.26-15.27-15.21-15.21C420.45,417.73,417.62,417.64,414.81,417.64Z"/><path class="cls-1" d="M223.68,400.45Z"/><path class="cls-1" d="M226.68,347.79c.95-1.16,1.91-2.32,2.87-3.52l1.4-1.76a2.36,2.36,0,0,0,.28-.35h0l-.2.27c.24-.28.44-.6.68-.88,1.64-2.24,3.28-4.47,4.84-6.75,2.95-4.32,5.75-8.79,8.31-13.35,2.27-4.07,4.43-8.27,6.39-12.5.48-1,.92-2,1.36-3,.2-.52.44-1,.64-1.48v0l.07-.18c.76-1.8,1.52-3.64,2.2-5.47,2.79-7.4,5.43-15.19,6.63-23.06a5.61,5.61,0,0,1,.13-.59Q258.17,270,254,264.9a67,67,0,0,1-19.55,7.44,70.79,70.79,0,0,1-43.6-4.79,67.5,67.5,0,0,1-17.22-11.26,173.86,173.86,0,0,0-1.44,33.79c.16,3.32.4,6.6.72,9.87.16,1.6.32,3.24.52,4.84,0,.19.19,1.48.19,1.51.1.65.18,1.32.29,2a177,177,0,0,0,3.63,18.06,160,160,0,0,0,5.2,16.62c.52,1.44,1.08,2.92,1.68,4.36.16.32.72,1.72.6,1.44s.44,1,.6,1.39c1.12,2.56,2.31,5,3.55,7.52a155.19,155.19,0,0,0,8.27,14.22c.52.77,1,1.52,1.57,2.28A178.73,178.73,0,0,0,226.68,347.79Z"/><path class="cls-1" d="M283.46,0C126.91,0,0,126.91,0,283.46S126.91,566.93,283.46,566.93,566.93,440,566.93,283.46,440,0,283.46,0ZM451.17,437.14l-3,2.95L434,454.36c-2.48,2.48-4.8,5.67-8.59,5.79s-7.88,0-11.79,0h-255a4.73,4.73,0,0,1-.65,0H141.76c-5.19,0-10.39.16-15.54,0a12.33,12.33,0,0,1-12.15-12.06c0-1.48,0-3,0-4.52V423.27c0-1.8,0-3.64,0-5.47a12.27,12.27,0,0,1,10.63-12,5.49,5.49,0,0,1,1.4-.19h32.48a4.63,4.63,0,0,1,.65,0c4.29-.08,8.53,0,12.78,0H211.2a124.82,124.82,0,0,1-16-16.62c-.59-.73-1.15-1.48-1.72-2.22a5.59,5.59,0,0,1-1-1.18c-.07-.12-.13-.25-.19-.37a159.9,159.9,0,0,1-27.38-60.21c-5.93-25.95-6.94-53.93-1.37-80-1.08-1.49-2.11-3-3.07-4.61a69,69,0,0,1-9.79-42.31,70.68,70.68,0,0,1,14.71-36.85,68.36,68.36,0,0,1,26.59-20.47,101.25,101.25,0,0,1,35.58-24.08c12.19-5,25.22-7.75,38.33-9.07a173,173,0,0,1,40.16.56c25.83,3.35,51,13.17,69,32.48a67.25,67.25,0,0,1,13.78,8,70.42,70.42,0,0,1,27.86,55.62v0a69.43,69.43,0,0,1-13.23,40.74,178.11,178.11,0,0,1,3.28,45.33c-1.24,25.38-7.12,50.55-18.63,73.29a141.59,141.59,0,0,1-13.54,21.69l-.08.17a5.51,5.51,0,0,1-1,1.28,132.75,132.75,0,0,1-17.78,18.78h62.25c3.76,0,9.11-.88,12.11,1.84,3.88,3.47,7.43,7.43,11.11,11.11l10.07,10.07A6.1,6.1,0,0,1,451.17,437.14Z"/><path class="cls-1" d="M210.57,200.29h0C210.65,200.09,210.74,199.84,210.57,200.29Z"/><path class="cls-1" d="M227.83,210.4l-.07.08,0,0Z"/><path class="cls-1" d="M227.74,210.51l-.05.06C227.52,210.8,227.4,211,227.74,210.51Z"/><path class="cls-1" d="M343.48,400.29Z"/></g></g></svg>