<svg xmlns="http://www.w3.org/2000/svg" viewBox="0 0 361.63 172"><defs><style>.cls-1{fill:#fff;}</style></defs><g id="Layer_2" data-name="Layer 2"><g id="Layer_1-2" data-name="Layer 1"><path class="cls-1" d="M0,103.26H10.83v53.1H0Z"/><path class="cls-1" d="M17.11,138.17a19.28,19.28,0,1,1,19.31,19.24h0a19.06,19.06,0,0,1-19.27-18.84Zm27.65,0a8.38,8.38,0,1,0-8.38,8.59,8.15,8.15,0,0,0,8.38-7.93Q44.78,138.5,44.76,138.17Z"/><path class="cls-1" d="M99.19,120v34.57c0,12.24-9.57,17.4-19.24,17.4a18.57,18.57,0,0,1-17.22-8.81L72,157.77a8.32,8.32,0,0,0,8.12,4.58,7.21,7.21,0,0,0,8.31-5.93,7.31,7.31,0,0,0,.07-1.87V151.2a12.87,12.87,0,0,1-10.61,4.73,18.48,18.48,0,0,1,0-37,13,13,0,0,1,10.61,4.72v-3.61ZM88.54,137.45a8.81,8.81,0,1,0-9.16,8.43h.35a8.22,8.22,0,0,0,8.79-7.63A7.3,7.3,0,0,0,88.54,137.45Z"/><path class="cls-1" d="M105.43,138.17a19.28,19.28,0,1,1,19.31,19.24h0a19.06,19.06,0,0,1-19.27-18.84Zm27.65,0a8.37,8.37,0,1,0-8.38,8.59,8.17,8.17,0,0,0,8.32-8c0-.2,0-.4,0-.59Z"/><path class="cls-1" d="M149,110.23a6.57,6.57,0,1,1,6.56,6.57h0A6.6,6.6,0,0,1,149,110.23Zm1.11,9.75h10.83v36.38H150.11Z"/><path class="cls-1" d="M208.15,138.17a18.26,18.26,0,0,1-17.24,19.23h-.12A13.86,13.86,0,0,1,180,153v18H169.14V120H180v3.43A13.82,13.82,0,0,1,190.79,119a18.26,18.26,0,0,1,17.37,19.12Zm-10.82,0a8.66,8.66,0,1,0-8.88,8.88,8.27,8.27,0,0,0,8.8-8.88Z"/><path class="cls-1" d="M241.87,145.46c0,8.37-7.22,11.95-15.16,11.95a16,16,0,0,1-15.63-8.67l9.45-5.37a6,6,0,0,0,6.18,4.29c2.63,0,3.93-.83,3.93-2.27,0-4-18-1.88-18-14.44C212.59,123,219.31,119,227,119a16,16,0,0,1,14.22,7.8l-9.49,5a5.37,5.37,0,0,0-4.91-3.21c-1.88,0-3,.72-3,2.05C224,134.77,241.87,132,241.87,145.46Z"/><path class="cls-1" d="M281.71,120v36.38H270.88V153a12.48,12.48,0,0,1-10.39,4.44c-7.22,0-13.61-5.24-13.61-15.09V120h10.83v20.75a6,6,0,0,0,5.32,6.6,7,7,0,0,0,1.21,0c4,0,6.75-2.31,6.75-7.48V120Z"/><path class="cls-1" d="M344.3,134.05v22.31H333.47V135c0-3.61-1.77-6-5.23-6s-5.7,2.56-5.7,6.86v20.5H311.71V135c0-3.61-1.74-6-5.24-6s-5.66,2.56-5.66,6.86v20.5H290V120h10.83v3.35a11.17,11.17,0,0,1,9.74-4.36,10.8,10.8,0,0,1,9.53,4.8,12,12,0,0,1,10.54-4.8C338.85,119,344.3,125,344.3,134.05Z"/><circle class="cls-1" cx="353.54" cy="111.67" r="8.09"/><circle class="cls-1" cx="122.54" cy="37.86" r="37.86"/><circle class="cls-1" cx="207.18" cy="37.86" r="37.86"/><rect class="cls-1" x="0.07" width="75.69" height="75.69"/></g></g></svg>