<svg xmlns="http://www.w3.org/2000/svg" viewBox="0 0 566.93 566.93"><defs><style>.cls-1{fill:#6d4ff8;}</style></defs><g id="Layer_2" data-name="Layer 2"><g id="Layer_1-2" data-name="Layer 1"><path class="cls-1" d="M213.88,339.88a12.48,12.48,0,0,0-17.66,0h0L184,352.05a12.49,12.49,0,0,0,17.67,17.67l12.17-12.18A12.5,12.5,0,0,0,213.88,339.88Z"/><path class="cls-1" d="M186.23,312.23a12.49,12.49,0,0,0-17.67,0L156.39,324.4a12.49,12.49,0,1,0,17.66,17.66l12.18-12.17A12.5,12.5,0,0,0,186.23,312.23Z"/><path class="cls-1" d="M241.53,367.53a12.48,12.48,0,0,0-17.66,0h0L211.7,379.71a12.49,12.49,0,0,0,17.66,17.66l12.17-12.17A12.49,12.49,0,0,0,241.53,367.53Z"/><path class="cls-1" d="M283.46,0C126.91,0,0,126.91,0,283.46S126.91,566.93,283.46,566.93,566.93,440,566.93,283.46,440,0,283.46,0Zm149,331.56-13.7,13.7a7,7,0,0,1-1.9,1.35,26.64,26.64,0,0,1-24.6,16.45c-.36,0-.72,0-1.07,0a26.58,26.58,0,0,1-26.58,27.68l-1.08,0a26.55,26.55,0,0,1-26.58,27.66c-.44,0-.89,0-1.33,0a26.6,26.6,0,0,1-45.39,20.15l-13.34-13.33L267,435a26.6,26.6,0,0,1-45.4-19.89l-1.07,0a26.6,26.6,0,0,1-26.62-26.6q0-.54,0-1.08c-.36,0-.71,0-1.07,0a26.58,26.58,0,0,1-26.61-26.61c0-.35,0-.71,0-1.07l-1.06,0A26.58,26.58,0,0,1,138.7,335.3a7.51,7.51,0,0,1-1.52-1.15l-2.66-2.66a108.8,108.8,0,0,1,149-158.44,107.71,107.71,0,0,1,57.55-26.26,109.6,109.6,0,0,1,67.18,12.65,7.07,7.07,0,0,1-6.85,12.36,95.05,95.05,0,0,0-112.83,15.89l-48.63,48.63a16.22,16.22,0,0,0,22.94,22.95L284.18,238a7.08,7.08,0,0,1,5-2.06H317a34.38,34.38,0,0,0,24.48-10.15l13.92-13.92a7.06,7.06,0,1,1,10,10l-13.92,13.92a48.62,48.62,0,0,1-13,9.3l72.58,72.58a26.5,26.5,0,0,1,6,9.31l5.35-5.36a94.87,94.87,0,0,0,15.41-113.7,7.06,7.06,0,1,1,12.28-7A109,109,0,0,1,432.44,331.56Z"/><path class="cls-1" d="M260.36,391.53a12.42,12.42,0,0,0-8.84,3.66h0l-12.17,12.17A12.49,12.49,0,1,0,257,425l12.17-12.18a12.49,12.49,0,0,0-8.83-21.32Z"/><path class="cls-1" d="M323.11,249.63a49.46,49.46,0,0,1-6.1.39h-24.9l-19.23,19.23A30.35,30.35,0,1,1,230,226.33l43.41-43.41A94.67,94.67,0,0,0,142.48,319.4a26.5,26.5,0,0,1,3.92-5l12.17-12.17A26.61,26.61,0,0,1,204,322.12c.35,0,.71,0,1.07,0a26.6,26.6,0,0,1,26.58,27.68l1.07,0a26.57,26.57,0,0,1,26.58,27.68l1.08,0a26.62,26.62,0,0,1,24.87,36.11l15,15a12.49,12.49,0,0,0,17.67-17.66l-39.35-39.34a7.06,7.06,0,0,1,10-10l8.39,8.39a7,7,0,0,1,1.81,1.3l29.4,29.4a12.49,12.49,0,0,0,17.66-17.66l-29.4-29.4h0l-27.65-27.65a7.06,7.06,0,0,1,10-10l57.06,57.06a12.49,12.49,0,1,0,17.66-17.67l-57.05-57.05a7.06,7.06,0,0,1,10-10L354,315.87h0l29.4,29.4a12.49,12.49,0,1,0,17.67-17.66Z"/></g></g></svg>