<svg xmlns="http://www.w3.org/2000/svg" viewBox="0 0 948.53 566.6"><defs><style>.cls-1{fill:#fff;}.cls-2{fill:#f89a1e;}</style></defs><g id="Layer_2" data-name="Layer 2"><g id="Layer_1-2" data-name="Layer 1"><path class="cls-1" d="M486.74,70.09c-16.26,67.8-32.26,134.69-48.37,201.55-3.34,13.82-6.6,16.14-20.76,16.14-8.49,0-17,0-25.48,0-9.66-.07-13.7-2.52-16.77-11.74-4.93-14.73-9.35-29.63-13.87-44.49q-31.07-102-62-204.08a84.5,84.5,0,0,1-2.39-9.78c-1-5.74,1.82-9.43,7.56-9.47,11.61-.1,23.22.07,34.83.2,6,.07,10,3.1,12.26,8.69,4.3,10.79,6.38,22.21,9.24,33.39Q383.65,139,406,227.64c.27,1.08.32,2.23,1.36,3.15q9.88-41.85,19.73-83.5,14.58-61.72,29.2-123.45c3.12-13,6.72-15.7,20-15.7,9,0,18-.09,27,.26,8.48.32,12.19,3.2,14.44,11.46,2.77,10.2,5,20.53,7.48,30.81q21.38,90.42,42.73,180.85c.09.41,0,1,1.09,1.21,1.59-6,3.23-12,4.8-18.11Q598.26,120,622.68,25.36C626.39,11,630,8.13,644.85,8.13c8.36,0,16.73,0,25.09,0,7.12,0,9.49,2.56,8.92,9.63-.62,7.78-3.8,14.92-6.08,22.26q-36.19,116.25-72.56,232.45c-.11.35-.16.73-.28,1.08-4,11.94-7.51,14.49-20.22,14.51-9.61,0-19.23-.14-28.84-.2-7,0-11.68-3.55-13.54-10.14-2.51-8.85-4.6-17.82-6.75-26.77q-21.44-89-42.82-178.11C487.61,72.18,487.28,71.54,486.74,70.09Z"/><path class="cls-2" d="M478.74,566.58c-89-.1-169-13.78-246.5-41.77a686.31,686.31,0,0,1-199.7-112.7C23.13,404.5,14,396.59,4.9,388.57c-.29-.25-.57-.5-.84-.76-4.3-4.19-5.26-9-2.51-12.67,2.59-3.45,7.55-4.13,12.59-1.41,11.52,6.21,22.87,12.74,34.47,18.8a923.79,923.79,0,0,0,184.13,72,957,957,0,0,0,112.61,23.71q41.67,6.19,83.73,8.64c25.7,1.53,51.4,1.92,77.12,1.34A874.06,874.06,0,0,0,605,490.15,942.69,942.69,0,0,0,822,433.8c7.08-2.77,14.08-5.72,21.11-8.6,4.84-2,9.69-2.31,14.5,0,8.25,4,10,13.64,3.76,20.69-4,4.52-9.29,7.54-14.2,10.93-47.34,32.74-99.08,56.43-153.65,74.21a731.27,731.27,0,0,1-133.32,29.88C530.92,564.71,501.55,566.81,478.74,566.58Z"/><path class="cls-1" d="M218.41,251.68a156.5,156.5,0,0,1-18.33,17.84c-23.77,19-51,26.76-81.21,25.3-12.83-.62-25.28-3-36.78-8.81C58.22,274,44.52,254.37,40.45,228.08c-3.08-19.93-1.39-39.36,8.25-57.41,12-22.51,31.44-35.83,55.42-43,17.92-5.38,36.32-6.11,54.85-4.92,17.95,1.16,35.6,4.3,53.11,8.33,1.06.24,2.91,1.42,2.88-1.21-.18-15.69,1-31.45-2.68-46.94-5.28-22.44-16.73-33-39.5-37-26.89-4.77-52.86-.7-78.37,7.85-7.54,2.53-14.93,5.5-22.4,8.2a40.2,40.2,0,0,1-5.39,1.49c-4.76,1-7.31-.68-8.41-5.48a17.65,17.65,0,0,1-.45-3.69c0-5.74.09-11.48,0-17.22-.15-7.1,2.95-12,9.26-15.29A181.44,181.44,0,0,1,98.52,9.26a205.79,205.79,0,0,1,83.61-7.34c15.07,1.7,29.63,5.39,43,12.86,21,11.72,32.28,30.43,37.78,53.16a137.71,137.71,0,0,1,3.77,32.23q.07,49.59.05,99.18c0,19.83,3.6,38.74,13.61,56.2,4.93,8.59,3.47,13.22-4.85,18.81-5.89,4-11.77,7.95-17.73,11.82-7.62,4.94-13.38,4.1-19.52-2.66a102.76,102.76,0,0,1-15.67-23.58C221.25,257.27,219.9,254.62,218.41,251.68ZM159.9,159.79c-8.08-.16-19.17.21-30,3-16.83,4.4-29.1,13.89-33.73,31.38-2.09,7.93-2,16-1.09,24.14,1.82,16.86,12.86,30.33,29.44,33.49,24.66,4.7,47.6-.16,67.87-15.36,10-7.52,17.23-17.26,20.2-29.69s3.09-24.95,3-37.55c0-2.05-1.09-2.41-2.69-2.78A269.27,269.27,0,0,0,159.9,159.79Z"/><path class="cls-1" d="M808.87,0a187.37,187.37,0,0,1,65.77,12.22,69,69,0,0,1,6.73,3.21c8.7,4.52,13.19,11.43,12.38,21.5-.41,5.08.48,10.23-.55,15.3-1.05,5.23-4.31,7.31-9.55,6.1-4.27-1-8.15-3-12.18-4.65-27.92-11.23-56.62-14.17-86.12-7.75a53.76,53.76,0,0,0-9.14,3.17c-24.2,10.07-25,43.33-5.71,56,11.18,7.36,23.59,11.61,36.13,15.75,18,6,36.56,10.6,54.13,18,19.13,8,34.68,20.07,42.91,39.87,12.26,29.49,5.71,68.77-25.17,93.08-15.29,12-32.92,18.62-51.76,21.87-36.29,6.26-71.48,1.18-105.69-11.81A63.21,63.21,0,0,1,709.82,276c-5.68-3.58-8.33-8.76-8.43-15.32-.09-5.61-.1-11.23,0-16.84.14-8,4.4-11.11,12.1-8.61,5,1.6,9.73,3.76,14.59,5.68a176.23,176.23,0,0,0,81.39,11.68c10-.9,19.67-3.16,28.55-8.11,15.22-8.49,22.07-24.12,17.69-40.54-2.44-9.12-8.52-15.27-16.55-19.78-12.26-6.89-25.81-10.33-39-14.61-15-4.85-30.4-8.63-44.94-14.94-23.56-10.22-40.39-26.78-47.72-51.77-8.7-29.65,1.72-60.3,26.2-79.47C755,6.59,779.66.34,806.25,0,807.13,0,808,0,808.87,0Z"/><path class="cls-2" d="M882,353.16c16.55.36,32.58,1.4,48.22,5.74,15.09,4.19,18.44,8.25,18.35,24-.16,28-7.53,54.39-18.54,79.88-9.79,22.68-22.91,43.11-41.51,59.71a24.29,24.29,0,0,1-6.34,4.59c-2.72,1.18-5.55,2-8.06-.32s-1.91-5.06-.93-7.67c3-7.8,6.14-15.51,9.12-23.3,8.13-21.3,15.91-42.71,20.19-65.19,1.42-7.48,2.52-15,1.34-22.65-.92-6-3.95-10-9.47-12.43-8.64-3.75-17.84-4.63-27.06-5-22.5-1-44.89.8-67.23,3.29-7.06.78-14.12,1.69-21.18,2.42-3,.31-6,0-7.48-3s-.1-5.65,1.92-7.88c4.35-4.8,10.07-7.72,15.63-10.76,19.73-10.78,41.06-16.47,63.23-19.38C862.2,353.85,872.29,353.46,882,353.16Z"/></g></g></svg>