<svg xmlns="http://www.w3.org/2000/svg" viewBox="0 0 18.49 12.71"><defs><style>.cls-1{fill:#231f20;}</style></defs><g id="Layer_2" data-name="Layer 2"><g id="Layer_1-2" data-name="Layer 1"><path class="cls-1" d="M18,2.57a4,4,0,0,1,.34.37.79.79,0,0,1,.16.52.61.61,0,0,1-.18.43L18,4.26,9.79,12.47a.75.75,0,0,1-.51.24.69.69,0,0,1-.47-.24L.23,3.92A.71.71,0,0,1,0,3.41.56.56,0,0,1,.23,3L2.84.28A.81.81,0,0,1,3.41,0a.8.8,0,0,1,.51.21L9.3,5.57,14.67.21A1.11,1.11,0,0,1,15.18,0a.76.76,0,0,1,.5.24ZM6.75,4a.24.24,0,0,1-.07-.2c0-.09,0-.15,0-.17s-.08-.05-.19,0l.1,0a.32.32,0,0,1,0,.21A.15.15,0,0,0,6.6,4S6.67,4,6.75,4Zm5.81,0a1,1,0,0,0-.08.3.33.33,0,0,1-.15.22c.07,0,.12,0,.15.13s0,0,0,0,0,0,0,0a.64.64,0,0,1,.06-.16.6.6,0,0,0,.08-.16.33.33,0,0,0,0-.17A.29.29,0,0,0,12.56,3.92Zm-6.2.13-.12,0-.15.07a.11.11,0,0,0,0,.11.47.47,0,0,0,.16,0h.07A.19.19,0,0,0,6.36,4.05Zm.49,1s0,0,0-.07l.08-.1a.41.41,0,0,0,0-.12s0-.06,0-.1a.05.05,0,0,1,0,0s0,0-.06,0a.48.48,0,0,0-.14.23c0,.09,0,.15,0,.17S6.79,5.1,6.85,5.06ZM5,5.13a.28.28,0,0,0,.11.11l.18.12c.09,0,.14.07.15,0A.52.52,0,0,0,5.54,5a.41.41,0,0,0-.1-.32.14.14,0,0,0-.13,0,.2.2,0,0,1,0,.28.41.41,0,0,1-.19.12A.76.76,0,0,1,5,5.13ZM14,4.82a.32.32,0,0,1-.11.14.86.86,0,0,0-.17.15.24.24,0,0,0-.09.14s.06.1.18.16a1.83,1.83,0,0,1-.13.16l-.14.16a.69.69,0,0,1-.13-.11l-.09-.11a.2.2,0,0,0-.08.13s0,.08,0,.12a.49.49,0,0,1,0,.11s0,.06-.12.09a.78.78,0,0,0-.2-.14.15.15,0,0,0-.19,0s0,.06,0,.11a.21.21,0,0,0,0,.17.35.35,0,0,0,.18,0H13a.23.23,0,0,1,.11.05s0,.09,0,.19c.12-.12.24-.23.35-.32a.32.32,0,0,1,.36,0c.14.07.21.14.2.22a.91.91,0,0,0,0,.23.39.39,0,0,0,.16-.23.29.29,0,0,0,0-.22c-.05.09-.11.11-.16,0l-.16-.16.13-.16a.59.59,0,0,1,.13-.17.24.24,0,0,1,.14-.09s.1,0,.15.06a.48.48,0,0,0,.18-.2.34.34,0,0,0,0-.19c-.18,0-.3,0-.35-.12A.82.82,0,0,0,14,4.82Zm-6.13.24c-.06-.06-.14,0-.24.07l0,0s0,0,.05,0l.13,0v.1l.15,0c.07.07.11.09.13.07l.08-.07v0a.22.22,0,0,0-.16,0L8,5.05Zm0,.2a.26.26,0,0,1,.07-.1A.23.23,0,0,0,8,5.05Zm-3.59.47a.28.28,0,0,1-.16-.13L4,5.45a.19.19,0,0,0-.12-.07.14.14,0,0,0-.14,0c.08.06.07.15,0,.26l-.09.08-.06,0a0,0,0,0,0,0,0s0,0,0,0A.23.23,0,0,0,3.76,6a.63.63,0,0,0,.19,0l.16-.07a.49.49,0,0,1,.17-.06l.13.07,0-.09.09.08.12-.08a.24.24,0,0,0-.09-.06s0,0-.07,0,0,0,0,0,0,0,0,0l0,0Zm.13.14a.33.33,0,0,1,0-.1v-.1Zm1.41.67a.19.19,0,0,1,0-.2.14.14,0,0,0,0-.18.2.2,0,0,0-.11,0H5.52A.51.51,0,0,0,5.43,6L5.29,5.8l-.23.28a2.23,2.23,0,0,0,.38.25Zm6.81.31a.11.11,0,0,1,0-.15.44.44,0,0,1,.15-.12l.15-.1s0-.06,0-.09a.24.24,0,0,0-.24,0,.29.29,0,0,0-.17.14.25.25,0,0,0-.06.2A.2.2,0,0,0,12.63,6.85Zm1.18-.51-.17.19a.26.26,0,0,1-.21.09l.24.32a.3.3,0,0,0,.33.13.44.44,0,0,1-.15-.37A.89.89,0,0,0,13.81,6.34ZM3.33,6.7l.06-.09a.15.15,0,0,0,0-.07Zm.75-.12a.37.37,0,0,0,0,.27.7.7,0,0,0,.19.27l.23.24a1,1,0,0,1,.2.27L5,7.38H4.92a.15.15,0,0,1,0-.16s0-.08,0-.14A.41.41,0,0,1,4.53,7L4.2,6.73l-.07-.06Zm.81,1.61h.17s0-.06,0-.12-.11,0-.14,0A.14.14,0,0,0,4.89,8.19Z"/></g></g></svg>