<svg xmlns="http://www.w3.org/2000/svg" viewBox="0 0 2643 1028"><defs><style>.cls-1{fill:#3527f5;}.cls-2{fill:#4c37f5;}.cls-3{fill:#6c4ff6;}.cls-4{fill:#251bf6;}.cls-5{fill:#fff;}.cls-6{fill:#e5e5e5;}.cls-7{fill:#f1f1f1;}.cls-8{fill:#a292ee;}.cls-9{fill:#24285b;}.cls-10{fill:#f3a18b;}.cls-11{fill:#d3d3d3;}.cls-12{fill:#fcbb68;}.cls-13{fill:#fed103;}.cls-14{fill:#fcdaac;}.cls-15{fill:#c8c8c8;}.cls-16{fill:#fbfbfd;}</style></defs><g id="Layer_3" data-name="Layer 3"><rect class="cls-1" x="807.5" y="-807.5" width="1028" height="2643" transform="translate(807.5 1835.5) rotate(-90)"/><path class="cls-2" d="M2643.5,461l.5,567H0V523c229-54,298-110,409-161s265,50,440,50,143,4,377-33,362-50,473,8,276,241,508,201"/><path class="cls-3" d="M1083.5,659c150-33,141-62,461,0s438,60,550,43,302,10,549,134v192H-.5l1-326s230-161,355-179,389,127,526,139S1083.5,659,1083.5,659Z"/><path class="cls-4" d="M0,1028H2.13V113.49C1.38,111.86,1,111,1,111Z"/><path class="cls-4" d="M2645.13,0H2.13V113.49C23.54,160.3,345.25,850,610,621c274-237,259-467,526-484s450,192,624,135S2284,87,2484,87h160Z"/><polygon class="cls-5" points="348.5 244 342.5 344 334.5 376 305.5 365 295.5 387 295.5 394 309.86 378.14 319.5 383 329.5 411 328.06 442.01 328.5 459 278.94 451.27 262.5 459 240.5 534 240.5 569 271.5 604 300.5 621 294.5 645 271.5 729 294.5 749 280.5 829 216.5 839 451.5 862 480.5 850 404.5 829 390.5 738 995.5 744 995.5 682 1048.5 648 1041.5 320 995.5 297 993.5 225 348.5 244"/><path class="cls-3" d="M305.5,729c2,0-23,110-23,110l130-4-31-113Z"/><path class="cls-6" d="M994.78,226.08q.16,28.57.35,57.15c0,4.62.22,9.25.34,13.88H773.12c-6.57,0-6.58,0-6.58,6.61V436.6q0,119.64-.1,239.29c0,4.79,1.35,6.33,6.19,6.21,12.32-.29,24.64-.06,37,0q0,15.71-.05,31.42c0,7.51,0,7.51,7.66,7.51l177.59.09c.12,8.31.21,16.63.36,24.95,0,2-.66,3.16-2.88,3-1.16-.08-2.33,0-3.5,0H459.54c-2,0-4-.12-6-.19-4.47-13.55-9.19-27-13.31-40.67-2.63-8.69-6.49-17-7.67-26.17,36.95,0,73.9-.08,110.85.09,4.73,0,6.28-1.22,6.25-6.12-.21-31.28-.11-62.57-.11-93.85,0-6-.09-12,0-18,.07-3-1.11-4.22-4.11-4.12-4,.13-8,0-12,0,.27-1.3.47-2.62.83-3.89,2.57-9.11,5.25-18.29,6-27.7.42-5.48,2.36-6.59,7.28-6.52,15.29.24,30.54,1.69,45.85,1.16,3.35-.12,5.2-.63,5.18-4.64q-.21-35.94,0-71.87c0-3.53-1.31-4.66-4.71-4.59-8.15.17-16.31.08-24.46.1-.67-2.8,1.54-7-4.34-7-26.82.14-53.65.09-80.47,0-2.91,0-4.18.79-4.16,3.94q.15,33,0,66c0,3.49,1.46,4.16,4.5,4.11,8.16-.12,16.32,0,24.49,0-2.11,5.9-4.15,11.82-6.34,17.69-4.34,11.64-9.39,22.93-16.65,33.11l-44.77-.07A15.05,15.05,0,0,0,441,557c-8.16-18-12.47-37.18-16.76-56.34-2.65-11.84-5.1-23.74-8.23-35.46-3.61-13.5-12-17.43-24.46-12.12a46.58,46.58,0,0,0-22.21-10.23c-6.94-1.26-13.85-.49-20.76-.84-.48-2.28-1-4.55-1.46-6.82-1.91-9.35.54-15,8.57-20.25,5.25-3.42,8.43-8.28,7.79-14.65-.89-8.92-2.07-17.83-6.26-26-3.38-6.61-8.33-10.17-16-9A16.09,16.09,0,0,0,330.55,362l-1-.93c-.08-4.14-.23-8.28-.24-12.43q0-58.27,0-116.57c0-2,.16-4,.24-5.95l1-1.55c2-.08,4-.22,6-.22l206.08,0c3.65,0,7.31-.16,11-.24,2.16.08,4.31.24,6.47.24l427.06,0c2.16,0,4.32.14,6.48.21A1.67,1.67,0,0,0,994.78,226.08Zm-439.24,177c43.32,0,86.63-.08,130,.1,4.9,0,6.16-1.53,6.13-6.26q-.3-40,0-79.95c0-4.48-1.14-6-5.86-6q-129.69.19-259.39,0c-4.7,0-5.9,1.5-5.86,6,.17,26.48.08,53,.09,79.45,0,6.65,0,6.66,6.51,6.66ZM645.74,682c19.32,0,38.64-.13,58,.1,4.64.06,5.93-1.39,5.91-6q-.24-55.2,0-110.41c0-4.28-1.08-5.79-5.58-5.77q-58,.24-115.93,0c-4.41,0-5.69,1.32-5.67,5.69q.23,55.22,0,110.41c0,4.48,1.13,6.09,5.86,6C607.43,681.86,626.58,682,645.74,682ZM391.54,261.47A10.35,10.35,0,0,0,381.17,251a10.48,10.48,0,0,0-10.43,10.47,10.61,10.61,0,0,0,10.18,10.3A10.46,10.46,0,0,0,391.54,261.47Zm60,0A10.28,10.28,0,0,0,441.14,251a10.44,10.44,0,0,0-10.38,10.48A10.66,10.66,0,0,0,441,271.75,10.45,10.45,0,0,0,451.52,261.43ZM412.06,251a10.31,10.31,0,0,0-10.4,10.44c.12,5.65,5.14,10.53,10.66,10.36a10.78,10.78,0,0,0,10.15-10.36A10.33,10.33,0,0,0,412.06,251Z"/><path class="cls-7" d="M809.6,682.06c-12.33,0-24.65-.25-37,0-4.84.12-6.19-1.42-6.19-6.21q.21-119.65.1-239.29V303.71c0-6.59,0-6.61,6.58-6.61H995.47c18.33,0,36.67.16,55-.13,4.83-.08,6.4.83,6.36,6.11-.28,35.32-.15,70.65-.14,106,0,2,.14,4,.21,6-.07,1.16-.2,2.32-.2,3.48q0,122,0,244c0,1.16.11,2.32.17,3.48-.06,3.81-.37,7.63-.11,11.41s-.87,4.82-4.66,4.77c-18.88-.21-37.76-.12-56.65-.14ZM974.52,412q24.26,0,48.5,0c6.28,0,6.44-.17,6.45-6.49q0-36.48,0-73c0-6.26-.19-6.44-6.49-6.44-32.5,0-65,.07-97.5-.09-4.45,0-6.08,1.07-6,5.83q.34,37.23,0,74.47c-.05,4.84,1.7,5.84,6.09,5.79C941.86,411.91,958.19,412,974.52,412Zm-.46,103c16.49,0,33-.13,49.46.07,4.59.06,6.09-1.53,6.06-6.08q-.24-37,0-73.93c0-4.53-1.44-6.12-6-6.1q-49,.21-97.92,0c-4.47,0-6.2,1.31-6.17,6q.25,37.22,0,74.43c0,4.34,1.22,5.78,5.66,5.72C941.42,514.9,957.74,515,974.06,515ZM848.86,412c16.49,0,33-.09,49.47.06,3.75,0,5.31-.88,5.28-5q-.25-38,0-75.94c0-4.08-1.44-5.06-5.24-5.05q-49.47.17-98.94,0c-4.09,0-5,1.5-5,5.27q.18,37.73,0,75.44c0,4.27,1.5,5.35,5.51,5.31C816.22,411.9,832.54,412,848.86,412Zm-.16,103c16.66,0,33.32-.08,50,.06,3.69,0,4.92-1.23,4.91-4.91q-.18-37.74,0-75.47c0-4.44-1.67-5.74-5.91-5.72q-49,.17-98,0c-3.79,0-5.31,1-5.29,5.06q.22,38,0,76c0,4,1.46,5.11,5.27,5.08C816,515,832.37,515.05,848.7,515.05Zm62.82,38c-15.66,0-31.32.08-47-.07-3.28,0-4.72.58-4.65,4.3.22,12.32.17,24.65,0,37,0,3.18.79,4.35,4.17,4.34q47.49-.17,95,0c3.64,0,4.42-1.27,4.37-4.62-.17-12-.21-24,0-36,.07-3.83-.86-5.13-4.93-5.06C942.84,553.22,927.18,553.08,911.52,553.08ZM914.8,632c9.48,0,19-.29,28.43.12,5.42.23,5.43-2.68,5.35-6.51-.08-3.61.48-6.81-5.13-6.72q-28.44.44-56.88,0c-5.65-.08-5,3.18-5.09,6.75-.11,3.88,0,6.72,5.38,6.48C896.15,631.72,905.48,632,914.8,632Z"/><path class="cls-8" d="M414.68,818.8c43.95,1.53,87.68,4.87,130.61,15.12a81.09,81.09,0,0,1,18.82,6.55c3.67,1.91,8,4.09,8,8.8.06,4.89-4.55,6.67-8.22,8.46C553.2,863,541.64,865.57,530,867.8c-24.2,4.64-48.65,7.21-73.19,9.3-52.68,4.5-105.46,4.66-158.22,3.53a947.6,947.6,0,0,1-95-6.48c-21.32-2.6-42.55-5.57-63.29-11.29a64.57,64.57,0,0,1-16.55-7c-6.39-3.89-6.62-8.37-.78-12.93,5-3.88,10.91-5.57,16.82-7.34a209.41,209.41,0,0,1,29.67-6.72c.67,3.92,1.61,7.82,1.92,11.77.25,3.12,1.25,4.32,4.53,4.21,6.8-.24,13.61-.2,20.41,0,2.93.08,4.07-.83,4.35-3.84.54-5.76,1.56-11.49,2.38-17.23,12.68-1.07,25.36-2.19,38.06-3.21,7.74-.62,15.5-1.21,23.27-1.57,5.29-.24,10.6-.08,15.84-1.09.84,3.65-.8,7.4.44,11-4.62,5.39-10.17,8.9-17.55,8.93-3.19,0-5.55,1.62-6.05,4.81-.52,3.37,1.81,5.12,4.69,6.09a19.42,19.42,0,0,0,7.86.53c8-.64,15.8-4,24.11-2.41,5.88,1.11,8.48-2,6.57-7.64a27.79,27.79,0,0,0-6.71-10.35l2.52-11.06c2.82,0,5.65,0,8.47-.13,27.38-1.26,54.76-1.22,82.14,0,3.74.16,7.62,1.09,11.26-.77q2.87,6,5.74,12c-2.75,3.54-5.6,7-6.74,11.5-1.09,4.26,1.29,7.64,5.16,6.79,6.74-1.48,13.15-.1,19.69,1.09,4.69.87,9.47,2,14.24.37,2.68-.93,4.81-2.55,4.49-5.76a5.11,5.11,0,0,0-5.32-5c-7.81.05-13.52-3.84-18.63-9.11Z"/><path class="cls-9" d="M281.56,742.33c-6.64.2-13.3.15-19.91.68-4.39.36-4.85-1.09-3.82-4.92,7-25.82,13.75-51.68,20.59-77.53q3.63-13.72,7.24-27.46c11.11-.57,22.21-1.16,33.32-1.71l75.08-3.69c.63,3.6,1.25,7.2,1.89,10.79,5.53,31.37,11,62.75,16.69,94.08.81,4.46-.51,5.45-4.58,5.27-3.8-.17-7.62.25-11.43.42l-31.39,1.08c-12,.26-24,.36-36,1.46l-17.52.48Z"/><path class="cls-10" d="M486.45,560c7.26-10.18,12.31-21.47,16.65-33.11,2.19-5.87,4.23-11.79,6.34-17.69l24.46.15c-.91,4.38-3.51,7.79-6.46,11-1,1.09-2.28,2-2.52,3.57-1.91,12.49-6.25,24.28-10.43,36.12-2.39,4.55-4.64,9.18-7.2,13.63-9.32,16.25-21.42,29.62-39.3,36.69-14.92,5.9-30.15,5.76-45.51,1.9a90.79,90.79,0,0,1-24-12.18c.27-2.63.6-5.26.77-7.89.07-1,.43-3-1.37-2.34-6.17,2.32-13.32.67-18.91,3.42-12.76,6.28-25.59,12.47-38.34,18.8-2,.68-4.11,1.29-6.12,2-16.67,6.31-33.5,11.89-51.69,11.1-19.36.71-34.72-9.78-42.4-28.74-3.72-9.19-5.18-18.89-7-28.52-1.58-4.54-.27-9.27-.86-13.87h49.09c-.88,6.06-1.6,12.15-2.68,18.17-2.51,14.06,3.29,21.46,17.53,21.72a64,64,0,0,0,12.36-1c6.48-1.17,13.13-1.85,19.16-4.85,8.85-1,16.79-5,25.06-7.89,9.56-3.36,18.4-8.52,28.19-11.27,5.46-1.54,11.13-3.1,16.62-1,3.77,1.41,4.25,0,4.57-3,.65-6.27,1.49-12.51,2.26-18.77l10.79-3c2.06,6,4.4,11.76,8.08,16.94a40.86,40.86,0,0,0,11.14,12.56c9.53,7.4,20.07,11.14,31.92,5.75C475.23,574.4,481.32,567.64,486.45,560Z"/><path class="cls-11" d="M809.6,682.06,995.43,682q-.12,16.57-.26,33.17c0,2-.24,3.94-.37,5.91L817.21,721c-7.65,0-7.66,0-7.66-7.51Q809.57,697.78,809.6,682.06Z"/><path class="cls-11" d="M398.53,600a91.06,91.06,0,0,0,24,12.17c0,19.91,0,39.83.08,59.75,0,11.43-1.49,10,10,10.07,1.18,9.12,5,17.48,7.67,26.17,4.12,13.65,8.84,27.12,13.31,40.67l-54.11.18c-1.78-3.38-1.72-7.23-2.82-10.77,3.81-.17,7.63-.59,11.43-.42,4.07.18,5.39-.81,4.58-5.27-5.72-31.33-11.16-62.71-16.69-94.08q-1-5.38-1.88-10.78l-.33-9.26c2.56,0,2.61-1.89,2.84-3.77C397.17,609.79,397.87,604.9,398.53,600Z"/><path class="cls-10" d="M396.63,738.26c1.1,3.54,1,7.39,2.82,10.77,2.36,15.38,6.46,30.4,9.65,45.61,1.69,8.09,3.71,16.11,5.58,24.16q1,5.06,1.91,10.12L403.7,829q-2.88-6-5.74-12.06c-2.44-5.81-4.83-11.64-7.34-17.42q-11-25.31-22-50.59l-3.37-9.58Z"/><path class="cls-10" d="M281.56,742.33l30.16-1.05c-.19,1.15-.33,2.3-.56,3.44q-7.53,36.59-15.07,73.16l-2.52,11.06-12.92,0c-1.24-3.64.4-7.39-.44-11Z"/><path class="cls-12" d="M393.74,618.45l.33,9.26q-37.54,1.83-75.09,3.68c-11.11.55-22.21,1.14-33.32,1.71l-2.79-8c18.19.8,35-4.78,51.69-11.09,2-.76,4.08-1.37,6.12-2Z"/><path class="cls-9" d="M203,823.81c-.82,5.74-1.84,11.47-2.38,17.23-.28,3-1.42,3.92-4.35,3.84-6.8-.18-13.61-.22-20.41,0-3.28.11-4.28-1.09-4.53-4.21-.31-4-1.25-7.85-1.92-11.77q-.72-5.35-1.45-10.71c-.21-1.58-.95-3.29,1.08-4.31l9.68-.08a187.27,187.27,0,0,0,23,.11C206,816.73,202.38,820.55,203,823.81Z"/><path class="cls-10" d="M178.76,813.82l-9.68.08c-7.06-4.54-13.59-9.58-17.08-17.61-2.28-5.25-1.87-5.9,3.85-6a29.71,29.71,0,0,1,12.24,1.93c3.36,1.39,4,.26,3.85-2.91-.3-6.26,1.22-12.17,3.62-17.94,1.24-3,2.39-3.38,4.91-1.11,7.7,6.93,12.86,15.17,14.14,25.6-2.41,3.34-4.76,6.72-7.26,10-.93,1.22-1,3.7-3,3.39-1.53-.24-1.56-2.32-2.09-3.68-1.76-4.59-4.93-7.93-9.55-11.09C173.47,801.82,176.28,807.77,178.76,813.82Z"/><path class="cls-12" d="M178.76,813.82c-2.48-6.05-5.29-12-6.09-19.4,4.62,3.16,7.79,6.5,9.55,11.09.53,1.36.56,3.44,2.09,3.68,2.06.31,2.11-2.17,3-3.39,2.5-3.27,4.85-6.65,7.26-10,5.19-4.4,10.54-8.5,17.16-10.65,3.46-1.12,4.87-.38,4.68,3.42-.41,8.42-4,15.26-10,21-1.54,1.49-3.17,2.9-4.76,4.35A187.27,187.27,0,0,1,178.76,813.82Z"/><path class="cls-9" d="M319.75,400.17l-2.39-2.1L311,388.72c-2.93,5.89-6.5,10.74-11.45,14.38a41.69,41.69,0,0,1-17.74,8.09c8.83-13.91,6.49-28.52,6.7-42.83.11-7.67,3.35-11,11-11.13,7.35-.15,14.91-.34,19,7.76-6.69.15-10.07,2.29-12,7.61-2.19,6-1,10.54,3.86,14.63l.23-.08-.33.12a10.43,10.43,0,0,0,.2-2.34c-1.6-11.12-.45-13.55,9.2-19.2l9.68-3.62,1.22-.11a16.09,16.09,0,0,1,10.64,3.26c2.75,3.41,3.83,7.67,5.82,11.45s1.14,5.64-2.69,6.7c-2.65.94-5.31,1.84-7.93,2.84-7.68,2.93-9.11,6.57-5.54,14.14.55,1.17,1.29,2.26,2.25,3.91a11.38,11.38,0,0,1-5.84-3.15C325,398.72,322.53,398.35,319.75,400.17Z"/><path class="cls-13" d="M310.34,387.24c-4.84-4.1-6-8.64-3.85-14.64,1.95-5.32,5.33-7.46,12-7.61l1.14.73c-9.65,5.66-10.8,8.09-9.2,19.21a10.43,10.43,0,0,1-.2,2.34Z"/><path class="cls-7" d="M330.54,224.57l-1,1.55C329.37,225.27,329.4,224.55,330.54,224.57Z"/><path class="cls-7" d="M330.55,362l-1.22.11c.06-.35.13-.69.19-1Z"/><path class="cls-7" d="M994.78,226.08a1.67,1.67,0,0,1-1.22-1.52C994.76,224.42,995.05,225,994.78,226.08Z"/><path class="cls-14" d="M260.74,459.66,271.4,456c1.66,0,3.32.07,5,0,8.41-.52,13.82,3.62,17.16,11,2.86,6.31,3.78,13.09,3.89,19.88.35,21.57-4.2,42.45-9.39,63.23-.93,3.74-3.4,4-6.35,3.95H232.6c-3.71.25-5-1.23-5-5.18-.06-19.22,1.4-38.18,7.8-56.49C240.16,478.61,247.76,467.05,260.74,459.66Z"/><path class="cls-15" d="M555.54,403.1H427.1c-6.5,0-6.51,0-6.51-6.66,0-26.48.08-53-.09-79.45,0-4.5,1.16-6,5.86-6q129.69.19,259.39,0c4.72,0,5.89,1.53,5.86,6q-.27,40,0,79.95c0,4.73-1.23,6.28-6.13,6.26C642.17,403,598.86,403.1,555.54,403.1Zm-41.83-46c0-17.28-13.07-30.77-30-30.95a30.93,30.93,0,1,0-.46,61.86C500.36,388.11,513.71,374.55,513.71,357.12Zm79.4,5c-14,0-27.94,0-41.91,0-10.87.05-9.31-1.33-9.75,9.48-.21,5,1.19,6.57,6.36,6.53,28.77-.25,57.54-.07,86.32-.15,11.85,0,10.08,1.69,10.46-10.21.14-4.29-1.07-5.83-5.58-5.76C623.72,362.27,608.41,362.12,593.11,362.11ZM593,352.05c14.15,0,28.29.05,42.44,0,10.28-.05,8.75,1.24,9.18-9,.2-4.79-1.28-6.24-6.14-6.21-29,.21-57.92.05-86.88.13-11.43,0-9.84-1.7-10.17,10-.11,3.94,1.19,5.19,5.13,5.14C562,351.94,577.49,352.05,593,352.05Z"/><path class="cls-15" d="M645.74,682c-19.16,0-38.31-.14-57.46.11-4.73.06-5.88-1.55-5.86-6q.23-55.2,0-110.41c0-4.37,1.26-5.71,5.67-5.69q58,.22,115.93,0c4.5,0,5.6,1.49,5.58,5.77q-.21,55.2,0,110.41c0,4.56-1.27,6-5.91,6C684.38,681.87,665.06,682,645.74,682Z"/><path class="cls-15" d="M432.58,682c-11.51-.1-10,1.36-10-10.07-.09-19.92-.06-39.84-.08-59.75,15.36,3.86,30.59,4,45.51-1.9,17.88-7.07,30-20.44,39.3-36.69,2.56-4.45,4.81-9.08,7.2-13.63l19,.09c4,0,8,.11,12,0,3-.1,4.18,1.12,4.11,4.12-.12,6,0,12,0,18,0,31.28-.1,62.57.11,93.85,0,4.9-1.52,6.14-6.25,6.12C506.48,681.93,469.53,682,432.58,682Z"/><path class="cls-12" d="M533.9,509.31l-24.46-.15c-8.17,0-16.33-.12-24.49,0-3,0-4.52-.62-4.5-4.11q.18-33,0-66c0-3.15,1.25-3.95,4.16-3.94,26.82.07,53.65.12,80.47,0,5.88,0,3.67,4.19,4.34,7,0,20.64-.14,41.28,0,61.92,0,3.85-1,5.25-5,5.17C554.21,509,544.06,509.24,533.9,509.31ZM525.38,498c10.14,0,20.29,0,30.43,0,5.15,0,5.58-.59,3.3-4.94-4.49-8.53-9.19-16.95-13.66-25.48-1.66-3.17-3-2.27-4.58-.08-4,5.34-8.15,10.51-11.92,16-2.42,3.5-3.8,4-5.85-.3-3.07-6.45-6.58-12.69-10-19-.58-1.08-.83-2.81-2.54-2.64-1.31.12-1.57,1.58-2.13,2.56q-8.21,14.53-16.39,29.1c-2.28,4-1.9,4.76,2.86,4.79C505.09,498.08,515.23,498,525.38,498Zm3.5-35.15a6.9,6.9,0,0,0,6.86-7,6.61,6.61,0,0,0-6.83-6.9,7.08,7.08,0,0,0-7,6.89A7.34,7.34,0,0,0,528.88,462.89Z"/><path class="cls-11" d="M533.9,509.31c10.16-.07,20.31-.32,30.46-.11,4,.08,5.08-1.32,5-5.17-.12-20.64,0-41.28,0-61.92,8.15,0,16.31.07,24.46-.1,3.4-.07,4.72,1.06,4.71,4.59q-.17,35.92,0,71.87c0,4-1.83,4.52-5.18,4.64-15.31.53-30.56-.92-45.85-1.16-4.92-.07-6.86,1-7.28,6.52-.72,9.41-3.4,18.59-6,27.7-.36,1.27-.56,2.59-.83,3.89l-19-.09c4.18-11.84,8.52-23.63,10.43-36.12.24-1.58,1.51-2.48,2.52-3.57C530.39,517.1,533,513.69,533.9,509.31Z"/><path class="cls-11" d="M423.63,560c-3.68-5.18-6-11-8.08-16.94,4.77-.89,5.11-3.34,3.13-7.38-2.31-4.74-4-9.77-6-14.67.44-5.74,1.11-11.42.4-17.25-1.27-10.36-6.21-19-11.71-27.5-.12-9.06-4.36-16.37-9.84-23.16C404,447.77,412.39,451.7,416,465.2c3.13,11.72,5.58,23.62,8.23,35.46C428.52,519.82,432.83,539,441,557a15.05,15.05,0,0,1,.69,2.89Z"/><path class="cls-15" d="M423.63,560l18.05-.09,44.77.07c-5.13,7.68-11.22,14.44-19.76,18.33-11.85,5.39-22.39,1.65-31.92-5.75A40.86,40.86,0,0,1,423.63,560Z"/><path class="cls-11" d="M344.32,383.4c3.83-1,4.66-2.93,2.69-6.69s-3.07-8-5.82-11.45c7.69-1.16,12.64,2.4,16,9,4.19,8.19,5.37,17.1,6.26,26,.64,6.37-2.54,11.23-7.79,14.65-8,5.24-10.48,10.9-8.57,20.25.47,2.27,1,4.54,1.46,6.82l-2.06,1.07-2.78-.15c-2.1-9.57-4.07-19.18-6.38-28.7-.85-3.49-.82-5.15,3.55-5.21,6.34-.09,8.82-3.42,7.93-9.74-.3-2.12-.3-3.84,1.76-5.22,3-2,1.82-3.7-.57-5.32C347.85,387.27,345.25,386.22,344.32,383.4Z"/><path class="cls-14" d="M346.51,443.08l2.06-1.07c6.91.35,13.82-.42,20.76.84a46.58,46.58,0,0,1,22.21,10.23c5.48,6.79,9.72,14.1,9.84,23.16a109.78,109.78,0,0,0-35.63-25.07C359.4,448.33,352.93,445.77,346.51,443.08Z"/><path class="cls-9" d="M391.54,261.47a10.46,10.46,0,0,1-10.62,10.29,10.61,10.61,0,0,1-10.18-10.3A10.48,10.48,0,0,1,381.17,251,10.35,10.35,0,0,1,391.54,261.47Z"/><path class="cls-13" d="M451.52,261.43A10.45,10.45,0,0,1,441,271.75a10.66,10.66,0,0,1-10.21-10.25A10.44,10.44,0,0,1,441.14,251,10.28,10.28,0,0,1,451.52,261.43Z"/><path class="cls-12" d="M412.06,251a10.33,10.33,0,0,1,10.41,10.44,10.78,10.78,0,0,1-10.15,10.36c-5.52.17-10.54-4.71-10.66-10.36A10.31,10.31,0,0,1,412.06,251Z"/><path class="cls-11" d="M974.52,412c-16.33,0-32.66-.12-49,.09-4.39.05-6.14-.95-6.09-5.79q.34-37.23,0-74.47c0-4.76,1.59-5.85,6-5.83,32.5.16,65,.08,97.5.09,6.3,0,6.48.18,6.49,6.44q0,36.49,0,73c0,6.32-.17,6.48-6.45,6.49Q998.77,412.06,974.52,412Z"/><path class="cls-6" d="M974.06,515c-16.32,0-32.64-.14-48.95.09-4.44.06-5.69-1.38-5.66-5.72q.25-37.21,0-74.43c0-4.67,1.7-6,6.17-6q49,.21,97.92,0c4.6,0,6.07,1.57,6,6.1q-.24,37,0,73.93c0,4.55-1.47,6.14-6.06,6.08C1007,514.91,990.55,515,974.06,515Z"/><path class="cls-15" d="M848.86,412c-16.32,0-32.64-.11-49,.07-4,0-5.54-1-5.51-5.31q.25-37.72,0-75.44c0-3.77.94-5.29,5-5.27q49.47.21,98.94,0c3.8,0,5.27,1,5.24,5.05q-.24,38,0,75.94c0,4.13-1.53,5-5.28,5C881.84,411.92,865.35,412,848.86,412Z"/><path class="cls-6" d="M848.7,515.05c-16.33,0-32.66-.09-49,.07-3.81,0-5.29-1-5.27-5.08q.22-38,0-76c0-4.05,1.5-5.08,5.29-5.06q49,.15,98,0c4.24,0,5.93,1.28,5.91,5.72q-.23,37.72,0,75.47c0,3.68-1.22,4.94-4.91,4.91C882,515,865.36,515.05,848.7,515.05Z"/><path class="cls-13" d="M911.52,553.08c15.66,0,31.32.14,47-.1,4.07-.07,5,1.23,4.93,5.06-.23,12-.19,24,0,36,.05,3.35-.73,4.63-4.37,4.62q-47.47-.2-95,0c-3.38,0-4.21-1.16-4.17-4.34.15-12.32.2-24.65,0-37-.07-3.72,1.37-4.33,4.65-4.3C880.2,553.16,895.86,553.08,911.52,553.08Zm16,18c6.15,0,12.31-.26,18.44.08,4.77.26,4.46-2.62,4.42-5.74s.54-6.39-4.52-6.31q-18.2.31-36.38,0c-5-.08-4,3.21-4.06,6.07s-.76,6.17,4.17,6C915.56,570.86,921.54,571.06,927.52,571.07Z"/><path class="cls-16" d="M914.8,632c-9.32,0-18.65-.29-27.94.12-5.37.24-5.49-2.6-5.38-6.48.1-3.57-.56-6.83,5.09-6.75q28.44.44,56.88,0c5.61-.09,5,3.11,5.13,6.72.08,3.83.07,6.74-5.35,6.51C933.77,631.72,924.28,632,914.8,632Z"/><path class="cls-12" d="M280.65,829l12.92,0a27.79,27.79,0,0,1,6.71,10.35c1.91,5.67-.69,8.75-6.57,7.64-8.31-1.56-16.06,1.77-24.11,2.41a19.42,19.42,0,0,1-7.86-.53c-2.88-1-5.21-2.72-4.69-6.09.5-3.19,2.86-4.8,6.05-4.81C270.48,837.88,276,834.37,280.65,829Z"/><path class="cls-12" d="M403.7,829l12.89-.07c5.11,5.27,10.82,9.16,18.63,9.11a5.11,5.11,0,0,1,5.32,5c.32,3.21-1.81,4.83-4.49,5.76-4.77,1.67-9.55.5-14.24-.37-6.54-1.19-12.95-2.57-19.69-1.09-3.87.85-6.25-2.53-5.16-6.79C398.1,836,401,832.53,403.7,829Z"/><path class="cls-11" d="M368.61,748.92c-11.06,0-22.14-.24-33.19.25-5.24.22-6.87-1.56-6.13-6.39a11,11,0,0,0-.05-2c12-1.1,24-1.2,36-1.46Z"/><path class="cls-12" d="M346.51,443.08c6.42,2.69,12.89,5.25,19.24,8.09a109.78,109.78,0,0,1,35.63,25.07c5.5,8.49,10.44,17.14,11.71,27.5.71,5.83,0,11.51-.4,17.25-2.11,5.79-3.17,12-6.88,17.13.86-7.68,1.66-15.37,2.62-23,.47-3.73.19-6.3-4.68-6.42-4.59-.11-9.15-1.11-13.73-1.73.54-7.07.53-7-6.52-7.77-6.1-.63-12.18-1.39-18.28-2.05-7.12-.76-7.12-.74-8.68,5.94-4.77-.6-9.55-1.11-14.3-1.81-3.1-.46-4.35.41-4.72,3.8-3,27.69-6.28,55.35-9.46,83-6,3-12.68,3.68-19.16,4.85a64,64,0,0,1-12.36,1c-14.24-.26-20-7.66-17.53-21.72,1.08-6,1.8-12.11,2.68-18.17,2.95,0,5.42-.21,6.35-3.95,5.19-20.78,9.74-41.66,9.39-63.23-.11-6.79-1-13.57-3.89-19.88-3.34-7.37-8.75-11.51-17.16-11-1.66.1-3.32,0-5,0,13.44-9.71,28.61-13.47,45-13.09h27.35Z"/><path class="cls-13" d="M328.06,588.05c3.18-27.66,6.43-55.32,9.46-83,.37-3.39,1.62-4.26,4.72-3.8,4.75.7,9.53,1.21,14.3,1.81a14,14,0,0,1-.19,4c-1.54,4.59.68,5.68,4.74,6,6,.44,11.91,1.36,17.87,2,9.49,1,9.49,1,11.06-8.05,4.58.62,9.14,1.62,13.73,1.73,4.87.12,5.15,2.69,4.68,6.42-1,7.67-1.76,15.36-2.62,23-.58,2.61-1.29,5.2-1.05,7.92-.77,6.26-1.61,12.5-2.26,18.77-.32,3.06-.8,4.44-4.57,3-5.49-2.05-11.16-.49-16.62,1-9.79,2.75-18.63,7.91-28.19,11.27C344.85,583.07,336.91,587,328.06,588.05Z"/><path class="cls-13" d="M393.74,618.45,340.68,612c12.75-6.33,25.58-12.52,38.34-18.8,5.59-2.75,12.74-1.1,18.91-3.42,1.8-.67,1.44,1.32,1.37,2.34-.17,2.63-.5,5.26-.77,7.89-.66,4.89-1.36,9.78-1.95,14.67C396.35,616.56,396.3,618.41,393.74,618.45Z"/><path class="cls-14" d="M404.76,546c-.24-2.72.47-5.31,1.05-7.92,3.71-5.14,4.77-11.34,6.88-17.13,2,4.9,3.68,9.93,6,14.67,2,4,1.64,6.49-3.13,7.38Z"/><path class="cls-10" d="M343.73,442.93H316.38q1.68-21.37,3.37-42.75c2.78-1.82,5.23-1.45,7.51,1a11.38,11.38,0,0,0,5.84,3.15c-1-1.65-1.7-2.74-2.25-3.91-3.57-7.57-2.14-11.21,5.54-14.14,2.62-1,5.28-1.9,7.93-2.84.93,2.81,3.53,3.86,5.7,5.33,2.39,1.62,3.53,3.34.57,5.32-2.06,1.38-2.06,3.1-1.76,5.22.89,6.32-1.59,9.65-7.93,9.74-4.37.06-4.4,1.72-3.55,5.21C339.66,423.75,341.63,433.36,343.73,442.93Z"/><path class="cls-13" d="M310.25,387.27l.33-.12-.23.08Z"/><path class="cls-16" d="M513.71,357.12c0,17.43-13.35,31-30.44,30.91a30.93,30.93,0,1,1,.46-61.86C500.64,326.35,513.7,339.84,513.71,357.12Z"/><path class="cls-6" d="M593.11,362.12c15.3,0,30.61.15,45.9-.1,4.51-.07,5.72,1.47,5.58,5.76C644.21,379.68,646,378,634.13,378c-28.78.08-57.55-.1-86.32.15-5.17,0-6.57-1.56-6.36-6.53.44-10.81-1.12-9.43,9.75-9.48C565.17,362.07,579.14,362.11,593.11,362.12Z"/><path class="cls-16" d="M593,352.05c-15.48,0-31-.11-46.44.08-3.94.05-5.24-1.2-5.13-5.14.33-11.72-1.26-10,10.17-10,29-.08,57.92.08,86.88-.13,4.86,0,6.34,1.42,6.14,6.21-.43,10.23,1.1,8.94-9.18,9C621.26,352.1,607.12,352.05,593,352.05Z"/><path class="cls-14" d="M525.38,498c-10.15,0-20.29,0-30.44,0-4.76,0-5.14-.74-2.86-4.79q8.18-14.57,16.39-29.1c.56-1,.82-2.44,2.13-2.56,1.71-.17,2,1.56,2.54,2.64,3.38,6.3,6.89,12.54,10,19,2,4.31,3.43,3.8,5.85.3,3.77-5.47,8-10.64,11.92-16,1.63-2.19,2.92-3.09,4.58.08,4.47,8.53,9.17,16.95,13.66,25.48,2.28,4.35,1.85,4.92-3.3,4.94C545.67,498.07,535.52,498,525.38,498Z"/><path class="cls-16" d="M528.88,462.89a7.34,7.34,0,0,1-7-7,7.08,7.08,0,0,1,7-6.89,6.61,6.61,0,0,1,6.83,6.9A6.9,6.9,0,0,1,528.88,462.89Z"/><path class="cls-12" d="M927.52,571.07c-6,0-12-.21-17.93.06-4.93.22-4.2-3-4.17-6s-.92-6.15,4.06-6.07q18.18.28,36.38,0c5.06-.08,4.48,3.12,4.52,6.31s.35,6-4.42,5.74C939.83,570.81,933.67,571.07,927.52,571.07Z"/><path class="cls-9" d="M390,506.93c-1.57,9-1.57,9.05-11.06,8.05-6-.63-11.89-1.55-17.87-2-4.06-.3-6.28-1.39-4.74-6a14,14,0,0,0,.19-4c1.56-6.68,1.56-6.7,8.68-5.94,6.1.66,12.18,1.42,18.28,2.05C390.55,499.9,390.56,499.86,390,506.93Z"/></g></svg>